%TF.GenerationSoftware,KiCad,Pcbnew,(5.1.6)-1*%
%TF.CreationDate,2021-04-07T17:53:43+02:00*%
%TF.ProjectId,led_dimmer,6c65645f-6469-46d6-9d65-722e6b696361,rev?*%
%TF.SameCoordinates,Original*%
%TF.FileFunction,Soldermask,Top*%
%TF.FilePolarity,Negative*%
%FSLAX46Y46*%
G04 Gerber Fmt 4.6, Leading zero omitted, Abs format (unit mm)*
G04 Created by KiCad (PCBNEW (5.1.6)-1) date 2021-04-07 17:53:43*
%MOMM*%
%LPD*%
G01*
G04 APERTURE LIST*
%ADD10R,1.700000X1.700000*%
%ADD11C,1.700000*%
%ADD12R,1.300000X1.000000*%
%ADD13R,5.100000X3.100000*%
%ADD14O,3.600000X3.600000*%
%ADD15R,2.005000X2.100000*%
%ADD16O,2.005000X2.100000*%
%ADD17C,3.100000*%
%ADD18O,1.900000X3.100000*%
G04 APERTURE END LIST*
%TO.C,U1*%
G36*
G01*
X76779000Y-150066000D02*
X76779000Y-150416000D01*
G75*
G02*
X76604000Y-150591000I-175000J0D01*
G01*
X74904000Y-150591000D01*
G75*
G02*
X74729000Y-150416000I0J175000D01*
G01*
X74729000Y-150066000D01*
G75*
G02*
X74904000Y-149891000I175000J0D01*
G01*
X76604000Y-149891000D01*
G75*
G02*
X76779000Y-150066000I0J-175000D01*
G01*
G37*
G36*
G01*
X76779000Y-148796000D02*
X76779000Y-149146000D01*
G75*
G02*
X76604000Y-149321000I-175000J0D01*
G01*
X74904000Y-149321000D01*
G75*
G02*
X74729000Y-149146000I0J175000D01*
G01*
X74729000Y-148796000D01*
G75*
G02*
X74904000Y-148621000I175000J0D01*
G01*
X76604000Y-148621000D01*
G75*
G02*
X76779000Y-148796000I0J-175000D01*
G01*
G37*
G36*
G01*
X76779000Y-147526000D02*
X76779000Y-147876000D01*
G75*
G02*
X76604000Y-148051000I-175000J0D01*
G01*
X74904000Y-148051000D01*
G75*
G02*
X74729000Y-147876000I0J175000D01*
G01*
X74729000Y-147526000D01*
G75*
G02*
X74904000Y-147351000I175000J0D01*
G01*
X76604000Y-147351000D01*
G75*
G02*
X76779000Y-147526000I0J-175000D01*
G01*
G37*
G36*
G01*
X76779000Y-146256000D02*
X76779000Y-146606000D01*
G75*
G02*
X76604000Y-146781000I-175000J0D01*
G01*
X74904000Y-146781000D01*
G75*
G02*
X74729000Y-146606000I0J175000D01*
G01*
X74729000Y-146256000D01*
G75*
G02*
X74904000Y-146081000I175000J0D01*
G01*
X76604000Y-146081000D01*
G75*
G02*
X76779000Y-146256000I0J-175000D01*
G01*
G37*
G36*
G01*
X71829000Y-146256000D02*
X71829000Y-146606000D01*
G75*
G02*
X71654000Y-146781000I-175000J0D01*
G01*
X69954000Y-146781000D01*
G75*
G02*
X69779000Y-146606000I0J175000D01*
G01*
X69779000Y-146256000D01*
G75*
G02*
X69954000Y-146081000I175000J0D01*
G01*
X71654000Y-146081000D01*
G75*
G02*
X71829000Y-146256000I0J-175000D01*
G01*
G37*
G36*
G01*
X71829000Y-147526000D02*
X71829000Y-147876000D01*
G75*
G02*
X71654000Y-148051000I-175000J0D01*
G01*
X69954000Y-148051000D01*
G75*
G02*
X69779000Y-147876000I0J175000D01*
G01*
X69779000Y-147526000D01*
G75*
G02*
X69954000Y-147351000I175000J0D01*
G01*
X71654000Y-147351000D01*
G75*
G02*
X71829000Y-147526000I0J-175000D01*
G01*
G37*
G36*
G01*
X71829000Y-148796000D02*
X71829000Y-149146000D01*
G75*
G02*
X71654000Y-149321000I-175000J0D01*
G01*
X69954000Y-149321000D01*
G75*
G02*
X69779000Y-149146000I0J175000D01*
G01*
X69779000Y-148796000D01*
G75*
G02*
X69954000Y-148621000I175000J0D01*
G01*
X71654000Y-148621000D01*
G75*
G02*
X71829000Y-148796000I0J-175000D01*
G01*
G37*
G36*
G01*
X71829000Y-150066000D02*
X71829000Y-150416000D01*
G75*
G02*
X71654000Y-150591000I-175000J0D01*
G01*
X69954000Y-150591000D01*
G75*
G02*
X69779000Y-150416000I0J175000D01*
G01*
X69779000Y-150066000D01*
G75*
G02*
X69954000Y-149891000I175000J0D01*
G01*
X71654000Y-149891000D01*
G75*
G02*
X71829000Y-150066000I0J-175000D01*
G01*
G37*
%TD*%
D10*
%TO.C,C1*%
X59182000Y-149860000D03*
D11*
X59182000Y-146360000D03*
%TD*%
%TO.C,C2*%
G36*
G01*
X68842000Y-151032738D02*
X68842000Y-151989262D01*
G75*
G02*
X68570262Y-152261000I-271738J0D01*
G01*
X67863738Y-152261000D01*
G75*
G02*
X67592000Y-151989262I0J271738D01*
G01*
X67592000Y-151032738D01*
G75*
G02*
X67863738Y-150761000I271738J0D01*
G01*
X68570262Y-150761000D01*
G75*
G02*
X68842000Y-151032738I0J-271738D01*
G01*
G37*
G36*
G01*
X66792000Y-151032738D02*
X66792000Y-151989262D01*
G75*
G02*
X66520262Y-152261000I-271738J0D01*
G01*
X65813738Y-152261000D01*
G75*
G02*
X65542000Y-151989262I0J271738D01*
G01*
X65542000Y-151032738D01*
G75*
G02*
X65813738Y-150761000I271738J0D01*
G01*
X66520262Y-150761000D01*
G75*
G02*
X66792000Y-151032738I0J-271738D01*
G01*
G37*
%TD*%
%TO.C,C3*%
G36*
G01*
X66792000Y-145952738D02*
X66792000Y-146909262D01*
G75*
G02*
X66520262Y-147181000I-271738J0D01*
G01*
X65813738Y-147181000D01*
G75*
G02*
X65542000Y-146909262I0J271738D01*
G01*
X65542000Y-145952738D01*
G75*
G02*
X65813738Y-145681000I271738J0D01*
G01*
X66520262Y-145681000D01*
G75*
G02*
X66792000Y-145952738I0J-271738D01*
G01*
G37*
G36*
G01*
X68842000Y-145952738D02*
X68842000Y-146909262D01*
G75*
G02*
X68570262Y-147181000I-271738J0D01*
G01*
X67863738Y-147181000D01*
G75*
G02*
X67592000Y-146909262I0J271738D01*
G01*
X67592000Y-145952738D01*
G75*
G02*
X67863738Y-145681000I271738J0D01*
G01*
X68570262Y-145681000D01*
G75*
G02*
X68842000Y-145952738I0J-271738D01*
G01*
G37*
%TD*%
%TO.C,C4*%
G36*
G01*
X68842000Y-148492738D02*
X68842000Y-149449262D01*
G75*
G02*
X68570262Y-149721000I-271738J0D01*
G01*
X67863738Y-149721000D01*
G75*
G02*
X67592000Y-149449262I0J271738D01*
G01*
X67592000Y-148492738D01*
G75*
G02*
X67863738Y-148221000I271738J0D01*
G01*
X68570262Y-148221000D01*
G75*
G02*
X68842000Y-148492738I0J-271738D01*
G01*
G37*
G36*
G01*
X66792000Y-148492738D02*
X66792000Y-149449262D01*
G75*
G02*
X66520262Y-149721000I-271738J0D01*
G01*
X65813738Y-149721000D01*
G75*
G02*
X65542000Y-149449262I0J271738D01*
G01*
X65542000Y-148492738D01*
G75*
G02*
X65813738Y-148221000I271738J0D01*
G01*
X66520262Y-148221000D01*
G75*
G02*
X66792000Y-148492738I0J-271738D01*
G01*
G37*
%TD*%
D12*
%TO.C,D1*%
X61087000Y-159768000D03*
X61087000Y-163068000D03*
%TD*%
%TO.C,D2*%
X63627000Y-159768000D03*
X63627000Y-163068000D03*
%TD*%
D13*
%TO.C,+12V*%
X50800000Y-152400000D03*
%TD*%
%TO.C,GND*%
X50800000Y-146050000D03*
%TD*%
%TO.C,LED+*%
X50800000Y-158750000D03*
%TD*%
%TO.C,LED-*%
X50800000Y-165100000D03*
%TD*%
D14*
%TO.C,Q1*%
X83566000Y-146916000D03*
D15*
X81026000Y-163576000D03*
D16*
X83566000Y-163576000D03*
X86106000Y-163576000D03*
%TD*%
%TO.C,R1*%
G36*
G01*
X77567262Y-153642000D02*
X76610738Y-153642000D01*
G75*
G02*
X76339000Y-153370262I0J271738D01*
G01*
X76339000Y-152663738D01*
G75*
G02*
X76610738Y-152392000I271738J0D01*
G01*
X77567262Y-152392000D01*
G75*
G02*
X77839000Y-152663738I0J-271738D01*
G01*
X77839000Y-153370262D01*
G75*
G02*
X77567262Y-153642000I-271738J0D01*
G01*
G37*
G36*
G01*
X77567262Y-155692000D02*
X76610738Y-155692000D01*
G75*
G02*
X76339000Y-155420262I0J271738D01*
G01*
X76339000Y-154713738D01*
G75*
G02*
X76610738Y-154442000I271738J0D01*
G01*
X77567262Y-154442000D01*
G75*
G02*
X77839000Y-154713738I0J-271738D01*
G01*
X77839000Y-155420262D01*
G75*
G02*
X77567262Y-155692000I-271738J0D01*
G01*
G37*
%TD*%
%TO.C,R2*%
G36*
G01*
X63275738Y-155313000D02*
X64232262Y-155313000D01*
G75*
G02*
X64504000Y-155584738I0J-271738D01*
G01*
X64504000Y-156291262D01*
G75*
G02*
X64232262Y-156563000I-271738J0D01*
G01*
X63275738Y-156563000D01*
G75*
G02*
X63004000Y-156291262I0J271738D01*
G01*
X63004000Y-155584738D01*
G75*
G02*
X63275738Y-155313000I271738J0D01*
G01*
G37*
G36*
G01*
X63275738Y-157363000D02*
X64232262Y-157363000D01*
G75*
G02*
X64504000Y-157634738I0J-271738D01*
G01*
X64504000Y-158341262D01*
G75*
G02*
X64232262Y-158613000I-271738J0D01*
G01*
X63275738Y-158613000D01*
G75*
G02*
X63004000Y-158341262I0J271738D01*
G01*
X63004000Y-157634738D01*
G75*
G02*
X63275738Y-157363000I271738J0D01*
G01*
G37*
%TD*%
D17*
%TO.C,U2*%
X67310000Y-156210000D03*
X72310000Y-156210000D03*
D18*
X67310000Y-162460000D03*
X69810000Y-162460000D03*
X72310000Y-162460000D03*
%TD*%
M02*
