%TF.GenerationSoftware,KiCad,Pcbnew,(5.1.6)-1*%
%TF.CreationDate,2021-04-07T17:53:43+02:00*%
%TF.ProjectId,led_dimmer,6c65645f-6469-46d6-9d65-722e6b696361,rev?*%
%TF.SameCoordinates,Original*%
%TF.FileFunction,Copper,L2,Bot*%
%TF.FilePolarity,Positive*%
%FSLAX46Y46*%
G04 Gerber Fmt 4.6, Leading zero omitted, Abs format (unit mm)*
G04 Created by KiCad (PCBNEW (5.1.6)-1) date 2021-04-07 17:53:43*
%MOMM*%
%LPD*%
G01*
G04 APERTURE LIST*
%TA.AperFunction,ComponentPad*%
%ADD10R,1.600000X1.600000*%
%TD*%
%TA.AperFunction,ComponentPad*%
%ADD11C,1.600000*%
%TD*%
%TA.AperFunction,ComponentPad*%
%ADD12R,5.000000X3.000000*%
%TD*%
%TA.AperFunction,ComponentPad*%
%ADD13R,1.905000X2.000000*%
%TD*%
%TA.AperFunction,ComponentPad*%
%ADD14O,1.905000X2.000000*%
%TD*%
%TA.AperFunction,ComponentPad*%
%ADD15C,3.000000*%
%TD*%
%TA.AperFunction,ComponentPad*%
%ADD16O,1.800000X3.000000*%
%TD*%
%TA.AperFunction,ViaPad*%
%ADD17C,0.800000*%
%TD*%
%TA.AperFunction,Conductor*%
%ADD18C,0.508000*%
%TD*%
%TA.AperFunction,Conductor*%
%ADD19C,2.540000*%
%TD*%
%TA.AperFunction,Conductor*%
%ADD20C,0.254000*%
%TD*%
G04 APERTURE END LIST*
D10*
%TO.P,C1,1*%
%TO.N,12V_int*%
X59182000Y-149860000D03*
D11*
%TO.P,C1,2*%
%TO.N,GND*%
X59182000Y-146360000D03*
%TD*%
D12*
%TO.P,+12V,1*%
%TO.N,+12V*%
X50800000Y-152400000D03*
%TD*%
%TO.P,GND,1*%
%TO.N,GND*%
X50800000Y-146050000D03*
%TD*%
%TO.P,LED+,1*%
%TO.N,12V_int*%
X50800000Y-158750000D03*
%TD*%
%TO.P,LED-,1*%
%TO.N,Net-(J4-Pad1)*%
X50800000Y-165100000D03*
%TD*%
D13*
%TO.P,Q1,1*%
%TO.N,Net-(Q1-Pad1)*%
X81026000Y-163576000D03*
D14*
%TO.P,Q1,2*%
%TO.N,Net-(J4-Pad1)*%
X83566000Y-163576000D03*
%TO.P,Q1,3*%
%TO.N,GND*%
X86106000Y-163576000D03*
%TD*%
D15*
%TO.P,U2,4*%
%TO.N,12V_int*%
X67310000Y-156210000D03*
%TO.P,U2,5*%
%TO.N,+12V*%
X72310000Y-156210000D03*
D16*
%TO.P,U2,1*%
%TO.N,Net-(D2-Pad2)*%
X67310000Y-162460000D03*
%TO.P,U2,2*%
%TO.N,Net-(C4-Pad1)*%
X69810000Y-162460000D03*
%TO.P,U2,3*%
%TO.N,Net-(D1-Pad1)*%
X72310000Y-162460000D03*
%TD*%
D17*
%TO.N,12V_int*%
X77597000Y-146431000D03*
X69088000Y-150114000D03*
%TD*%
D18*
%TO.N,12V_int*%
X77597000Y-146431000D02*
X78359000Y-146431000D01*
X69088000Y-150114000D02*
X68580000Y-149606000D01*
D19*
X50800000Y-158750000D02*
X54102000Y-158750000D01*
%TO.N,+12V*%
X50800000Y-152400000D02*
X70866000Y-152400000D01*
X72310000Y-153844000D02*
X72310000Y-156210000D01*
X70866000Y-152400000D02*
X72310000Y-153844000D01*
%TD*%
D20*
%TO.N,12V_int*%
G36*
X88157197Y-144175047D02*
G01*
X88175662Y-144180622D01*
X88192694Y-144189678D01*
X88207643Y-144201870D01*
X88219938Y-144216732D01*
X88229111Y-144233696D01*
X88234817Y-144252129D01*
X88240001Y-144301455D01*
X88240000Y-166845723D01*
X88234953Y-166897195D01*
X88229377Y-166915663D01*
X88220322Y-166932693D01*
X88208129Y-166947643D01*
X88193266Y-166959939D01*
X88176303Y-166969111D01*
X88157871Y-166974817D01*
X88108554Y-166980000D01*
X53809605Y-166980000D01*
X53830537Y-166954494D01*
X53889502Y-166844180D01*
X53925812Y-166724482D01*
X53938072Y-166600000D01*
X53938072Y-163600000D01*
X53925812Y-163475518D01*
X53889502Y-163355820D01*
X53830537Y-163245506D01*
X53751185Y-163148815D01*
X53654494Y-163069463D01*
X53544180Y-163010498D01*
X53424482Y-162974188D01*
X53300000Y-162961928D01*
X48666000Y-162961928D01*
X48666000Y-161784593D01*
X65775000Y-161784593D01*
X65775000Y-163135408D01*
X65797210Y-163360913D01*
X65884983Y-163650261D01*
X66027520Y-163916927D01*
X66219340Y-164150661D01*
X66453074Y-164342481D01*
X66719740Y-164485017D01*
X67009088Y-164572790D01*
X67310000Y-164602427D01*
X67610913Y-164572790D01*
X67900261Y-164485017D01*
X68166927Y-164342481D01*
X68400661Y-164150661D01*
X68560001Y-163956505D01*
X68719340Y-164150661D01*
X68953074Y-164342481D01*
X69219740Y-164485017D01*
X69509088Y-164572790D01*
X69810000Y-164602427D01*
X70110913Y-164572790D01*
X70400261Y-164485017D01*
X70666927Y-164342481D01*
X70900661Y-164150661D01*
X71060001Y-163956505D01*
X71219340Y-164150661D01*
X71453074Y-164342481D01*
X71719740Y-164485017D01*
X72009088Y-164572790D01*
X72310000Y-164602427D01*
X72610913Y-164572790D01*
X72900261Y-164485017D01*
X73166927Y-164342481D01*
X73400661Y-164150661D01*
X73592481Y-163916927D01*
X73735017Y-163650261D01*
X73822790Y-163360913D01*
X73845000Y-163135408D01*
X73845000Y-162576000D01*
X79435428Y-162576000D01*
X79435428Y-164576000D01*
X79447688Y-164700482D01*
X79483998Y-164820180D01*
X79542963Y-164930494D01*
X79622315Y-165027185D01*
X79719006Y-165106537D01*
X79829320Y-165165502D01*
X79949018Y-165201812D01*
X80073500Y-165214072D01*
X81978500Y-165214072D01*
X82102982Y-165201812D01*
X82222680Y-165165502D01*
X82332994Y-165106537D01*
X82429685Y-165027185D01*
X82509037Y-164930494D01*
X82553905Y-164846553D01*
X82679766Y-164949845D01*
X82955552Y-165097255D01*
X83254797Y-165188030D01*
X83566000Y-165218681D01*
X83877204Y-165188030D01*
X84176449Y-165097255D01*
X84452235Y-164949845D01*
X84693963Y-164751463D01*
X84836000Y-164578391D01*
X84978037Y-164751463D01*
X85219766Y-164949845D01*
X85495552Y-165097255D01*
X85794797Y-165188030D01*
X86106000Y-165218681D01*
X86417204Y-165188030D01*
X86716449Y-165097255D01*
X86992235Y-164949845D01*
X87233963Y-164751463D01*
X87432345Y-164509734D01*
X87579755Y-164233948D01*
X87670530Y-163934703D01*
X87693500Y-163701485D01*
X87693500Y-163450514D01*
X87670530Y-163217296D01*
X87579755Y-162918051D01*
X87432345Y-162642265D01*
X87233963Y-162400537D01*
X86992234Y-162202155D01*
X86716448Y-162054745D01*
X86417203Y-161963970D01*
X86106000Y-161933319D01*
X85794796Y-161963970D01*
X85495551Y-162054745D01*
X85219765Y-162202155D01*
X84978037Y-162400537D01*
X84836000Y-162573609D01*
X84693963Y-162400537D01*
X84452234Y-162202155D01*
X84176448Y-162054745D01*
X83877203Y-161963970D01*
X83566000Y-161933319D01*
X83254796Y-161963970D01*
X82955551Y-162054745D01*
X82679765Y-162202155D01*
X82553905Y-162305446D01*
X82509037Y-162221506D01*
X82429685Y-162124815D01*
X82332994Y-162045463D01*
X82222680Y-161986498D01*
X82102982Y-161950188D01*
X81978500Y-161937928D01*
X80073500Y-161937928D01*
X79949018Y-161950188D01*
X79829320Y-161986498D01*
X79719006Y-162045463D01*
X79622315Y-162124815D01*
X79542963Y-162221506D01*
X79483998Y-162331820D01*
X79447688Y-162451518D01*
X79435428Y-162576000D01*
X73845000Y-162576000D01*
X73845000Y-161784592D01*
X73822790Y-161559087D01*
X73735017Y-161269739D01*
X73592481Y-161003073D01*
X73400661Y-160769339D01*
X73166926Y-160577519D01*
X72900260Y-160434983D01*
X72610912Y-160347210D01*
X72310000Y-160317573D01*
X72009087Y-160347210D01*
X71719739Y-160434983D01*
X71453073Y-160577519D01*
X71219339Y-160769339D01*
X71060000Y-160963495D01*
X70900661Y-160769339D01*
X70666926Y-160577519D01*
X70400260Y-160434983D01*
X70110912Y-160347210D01*
X69810000Y-160317573D01*
X69509087Y-160347210D01*
X69219739Y-160434983D01*
X68953073Y-160577519D01*
X68719339Y-160769339D01*
X68560000Y-160963495D01*
X68400661Y-160769339D01*
X68166926Y-160577519D01*
X67900260Y-160434983D01*
X67610912Y-160347210D01*
X67310000Y-160317573D01*
X67009087Y-160347210D01*
X66719739Y-160434983D01*
X66453073Y-160577519D01*
X66219339Y-160769339D01*
X66027519Y-161003074D01*
X65884983Y-161269740D01*
X65797210Y-161559088D01*
X65775000Y-161784593D01*
X48666000Y-161784593D01*
X48666000Y-160887564D01*
X50514250Y-160885000D01*
X50673000Y-160726250D01*
X50673000Y-158877000D01*
X50927000Y-158877000D01*
X50927000Y-160726250D01*
X51085750Y-160885000D01*
X53300000Y-160888072D01*
X53424482Y-160875812D01*
X53544180Y-160839502D01*
X53654494Y-160780537D01*
X53751185Y-160701185D01*
X53830537Y-160604494D01*
X53889502Y-160494180D01*
X53925812Y-160374482D01*
X53938072Y-160250000D01*
X53935000Y-159035750D01*
X53776250Y-158877000D01*
X50927000Y-158877000D01*
X50673000Y-158877000D01*
X50653000Y-158877000D01*
X50653000Y-158623000D01*
X50673000Y-158623000D01*
X50673000Y-156773750D01*
X50927000Y-156773750D01*
X50927000Y-158623000D01*
X53776250Y-158623000D01*
X53935000Y-158464250D01*
X53938072Y-157250000D01*
X53925812Y-157125518D01*
X53889502Y-157005820D01*
X53830537Y-156895506D01*
X53751185Y-156798815D01*
X53654494Y-156719463D01*
X53544180Y-156660498D01*
X53424482Y-156624188D01*
X53300000Y-156611928D01*
X51085750Y-156615000D01*
X50927000Y-156773750D01*
X50673000Y-156773750D01*
X50514250Y-156615000D01*
X48666000Y-156612436D01*
X48666000Y-154538072D01*
X53300000Y-154538072D01*
X53424482Y-154525812D01*
X53544180Y-154489502D01*
X53654494Y-154430537D01*
X53751185Y-154351185D01*
X53789088Y-154305000D01*
X56550967Y-154305000D01*
X56512506Y-154320931D01*
X56116424Y-154585585D01*
X55779585Y-154922424D01*
X55514931Y-155318506D01*
X55332635Y-155758608D01*
X55239701Y-156225818D01*
X55239701Y-156702182D01*
X55332635Y-157169392D01*
X55514931Y-157609494D01*
X55779585Y-158005576D01*
X56116424Y-158342415D01*
X56512506Y-158607069D01*
X56952608Y-158789365D01*
X57419818Y-158882299D01*
X57896182Y-158882299D01*
X58363392Y-158789365D01*
X58803494Y-158607069D01*
X59199576Y-158342415D01*
X59536415Y-158005576D01*
X59739490Y-157701653D01*
X65997952Y-157701653D01*
X66153962Y-158017214D01*
X66528745Y-158208020D01*
X66933551Y-158322044D01*
X67352824Y-158354902D01*
X67770451Y-158305334D01*
X68170383Y-158175243D01*
X68466038Y-158017214D01*
X68622048Y-157701653D01*
X67310000Y-156389605D01*
X65997952Y-157701653D01*
X59739490Y-157701653D01*
X59801069Y-157609494D01*
X59983365Y-157169392D01*
X60076299Y-156702182D01*
X60076299Y-156252824D01*
X65165098Y-156252824D01*
X65214666Y-156670451D01*
X65344757Y-157070383D01*
X65502786Y-157366038D01*
X65818347Y-157522048D01*
X67130395Y-156210000D01*
X67489605Y-156210000D01*
X68801653Y-157522048D01*
X69117214Y-157366038D01*
X69308020Y-156991255D01*
X69422044Y-156586449D01*
X69454902Y-156167176D01*
X69405334Y-155749549D01*
X69275243Y-155349617D01*
X69117214Y-155053962D01*
X68801653Y-154897952D01*
X67489605Y-156210000D01*
X67130395Y-156210000D01*
X65818347Y-154897952D01*
X65502786Y-155053962D01*
X65311980Y-155428745D01*
X65197956Y-155833551D01*
X65165098Y-156252824D01*
X60076299Y-156252824D01*
X60076299Y-156225818D01*
X59983365Y-155758608D01*
X59801069Y-155318506D01*
X59536415Y-154922424D01*
X59199576Y-154585585D01*
X58803494Y-154320931D01*
X58765033Y-154305000D01*
X66336909Y-154305000D01*
X66153962Y-154402786D01*
X65997952Y-154718347D01*
X67310000Y-156030395D01*
X68622048Y-154718347D01*
X68466038Y-154402786D01*
X68273966Y-154305000D01*
X70076924Y-154305000D01*
X70405000Y-154633077D01*
X70405001Y-155230052D01*
X70257047Y-155587244D01*
X70175000Y-155999721D01*
X70175000Y-156420279D01*
X70257047Y-156832756D01*
X70417988Y-157221302D01*
X70651637Y-157570983D01*
X70949017Y-157868363D01*
X71298698Y-158102012D01*
X71687244Y-158262953D01*
X72099721Y-158345000D01*
X72520279Y-158345000D01*
X72932756Y-158262953D01*
X73321302Y-158102012D01*
X73670983Y-157868363D01*
X73968363Y-157570983D01*
X74202012Y-157221302D01*
X74362953Y-156832756D01*
X74445000Y-156420279D01*
X74445000Y-155999721D01*
X74362953Y-155587244D01*
X74215000Y-155230054D01*
X74215000Y-153937571D01*
X74224216Y-153843999D01*
X74215000Y-153750427D01*
X74215000Y-153750418D01*
X74187436Y-153470555D01*
X74078506Y-153111461D01*
X73901613Y-152780518D01*
X73663556Y-152490444D01*
X73590865Y-152430788D01*
X72279219Y-151119144D01*
X72219556Y-151046444D01*
X71929482Y-150808387D01*
X71598539Y-150631494D01*
X71239445Y-150522564D01*
X70959582Y-150495000D01*
X70959580Y-150495000D01*
X70866000Y-150485783D01*
X70772420Y-150495000D01*
X60619086Y-150495000D01*
X60617000Y-150145750D01*
X60458250Y-149987000D01*
X59309000Y-149987000D01*
X59309000Y-150007000D01*
X59055000Y-150007000D01*
X59055000Y-149987000D01*
X57905750Y-149987000D01*
X57747000Y-150145750D01*
X57744914Y-150495000D01*
X53789088Y-150495000D01*
X53751185Y-150448815D01*
X53654494Y-150369463D01*
X53544180Y-150310498D01*
X53424482Y-150274188D01*
X53300000Y-150261928D01*
X48666000Y-150261928D01*
X48666000Y-149060000D01*
X57743928Y-149060000D01*
X57747000Y-149574250D01*
X57905750Y-149733000D01*
X59055000Y-149733000D01*
X59055000Y-148583750D01*
X59309000Y-148583750D01*
X59309000Y-149733000D01*
X60458250Y-149733000D01*
X60617000Y-149574250D01*
X60620072Y-149060000D01*
X60607812Y-148935518D01*
X60571502Y-148815820D01*
X60512537Y-148705506D01*
X60433185Y-148608815D01*
X60336494Y-148529463D01*
X60226180Y-148470498D01*
X60106482Y-148434188D01*
X59982000Y-148421928D01*
X59467750Y-148425000D01*
X59309000Y-148583750D01*
X59055000Y-148583750D01*
X58896250Y-148425000D01*
X58382000Y-148421928D01*
X58257518Y-148434188D01*
X58137820Y-148470498D01*
X58027506Y-148529463D01*
X57930815Y-148608815D01*
X57851463Y-148705506D01*
X57792498Y-148815820D01*
X57756188Y-148935518D01*
X57743928Y-149060000D01*
X48666000Y-149060000D01*
X48666000Y-148188072D01*
X53300000Y-148188072D01*
X53424482Y-148175812D01*
X53544180Y-148139502D01*
X53654494Y-148080537D01*
X53751185Y-148001185D01*
X53830537Y-147904494D01*
X53889502Y-147794180D01*
X53925812Y-147674482D01*
X53938072Y-147550000D01*
X53938072Y-146218665D01*
X57747000Y-146218665D01*
X57747000Y-146501335D01*
X57802147Y-146778574D01*
X57910320Y-147039727D01*
X58067363Y-147274759D01*
X58267241Y-147474637D01*
X58502273Y-147631680D01*
X58763426Y-147739853D01*
X59040665Y-147795000D01*
X59323335Y-147795000D01*
X59600574Y-147739853D01*
X59861727Y-147631680D01*
X60096759Y-147474637D01*
X60296637Y-147274759D01*
X60453680Y-147039727D01*
X60561853Y-146778574D01*
X60581242Y-146681098D01*
X81181000Y-146681098D01*
X81181000Y-147150902D01*
X81272654Y-147611679D01*
X81452440Y-148045721D01*
X81713450Y-148436349D01*
X82045651Y-148768550D01*
X82436279Y-149029560D01*
X82870321Y-149209346D01*
X83331098Y-149301000D01*
X83800902Y-149301000D01*
X84261679Y-149209346D01*
X84695721Y-149029560D01*
X85086349Y-148768550D01*
X85418550Y-148436349D01*
X85679560Y-148045721D01*
X85859346Y-147611679D01*
X85951000Y-147150902D01*
X85951000Y-146681098D01*
X85859346Y-146220321D01*
X85679560Y-145786279D01*
X85418550Y-145395651D01*
X85086349Y-145063450D01*
X84695721Y-144802440D01*
X84261679Y-144622654D01*
X83800902Y-144531000D01*
X83331098Y-144531000D01*
X82870321Y-144622654D01*
X82436279Y-144802440D01*
X82045651Y-145063450D01*
X81713450Y-145395651D01*
X81452440Y-145786279D01*
X81272654Y-146220321D01*
X81181000Y-146681098D01*
X60581242Y-146681098D01*
X60617000Y-146501335D01*
X60617000Y-146218665D01*
X60561853Y-145941426D01*
X60453680Y-145680273D01*
X60296637Y-145445241D01*
X60096759Y-145245363D01*
X59861727Y-145088320D01*
X59600574Y-144980147D01*
X59323335Y-144925000D01*
X59040665Y-144925000D01*
X58763426Y-144980147D01*
X58502273Y-145088320D01*
X58267241Y-145245363D01*
X58067363Y-145445241D01*
X57910320Y-145680273D01*
X57802147Y-145941426D01*
X57747000Y-146218665D01*
X53938072Y-146218665D01*
X53938072Y-144550000D01*
X53925812Y-144425518D01*
X53889502Y-144305820D01*
X53830537Y-144195506D01*
X53809605Y-144170000D01*
X88105723Y-144170000D01*
X88157197Y-144175047D01*
G37*
X88157197Y-144175047D02*
X88175662Y-144180622D01*
X88192694Y-144189678D01*
X88207643Y-144201870D01*
X88219938Y-144216732D01*
X88229111Y-144233696D01*
X88234817Y-144252129D01*
X88240001Y-144301455D01*
X88240000Y-166845723D01*
X88234953Y-166897195D01*
X88229377Y-166915663D01*
X88220322Y-166932693D01*
X88208129Y-166947643D01*
X88193266Y-166959939D01*
X88176303Y-166969111D01*
X88157871Y-166974817D01*
X88108554Y-166980000D01*
X53809605Y-166980000D01*
X53830537Y-166954494D01*
X53889502Y-166844180D01*
X53925812Y-166724482D01*
X53938072Y-166600000D01*
X53938072Y-163600000D01*
X53925812Y-163475518D01*
X53889502Y-163355820D01*
X53830537Y-163245506D01*
X53751185Y-163148815D01*
X53654494Y-163069463D01*
X53544180Y-163010498D01*
X53424482Y-162974188D01*
X53300000Y-162961928D01*
X48666000Y-162961928D01*
X48666000Y-161784593D01*
X65775000Y-161784593D01*
X65775000Y-163135408D01*
X65797210Y-163360913D01*
X65884983Y-163650261D01*
X66027520Y-163916927D01*
X66219340Y-164150661D01*
X66453074Y-164342481D01*
X66719740Y-164485017D01*
X67009088Y-164572790D01*
X67310000Y-164602427D01*
X67610913Y-164572790D01*
X67900261Y-164485017D01*
X68166927Y-164342481D01*
X68400661Y-164150661D01*
X68560001Y-163956505D01*
X68719340Y-164150661D01*
X68953074Y-164342481D01*
X69219740Y-164485017D01*
X69509088Y-164572790D01*
X69810000Y-164602427D01*
X70110913Y-164572790D01*
X70400261Y-164485017D01*
X70666927Y-164342481D01*
X70900661Y-164150661D01*
X71060001Y-163956505D01*
X71219340Y-164150661D01*
X71453074Y-164342481D01*
X71719740Y-164485017D01*
X72009088Y-164572790D01*
X72310000Y-164602427D01*
X72610913Y-164572790D01*
X72900261Y-164485017D01*
X73166927Y-164342481D01*
X73400661Y-164150661D01*
X73592481Y-163916927D01*
X73735017Y-163650261D01*
X73822790Y-163360913D01*
X73845000Y-163135408D01*
X73845000Y-162576000D01*
X79435428Y-162576000D01*
X79435428Y-164576000D01*
X79447688Y-164700482D01*
X79483998Y-164820180D01*
X79542963Y-164930494D01*
X79622315Y-165027185D01*
X79719006Y-165106537D01*
X79829320Y-165165502D01*
X79949018Y-165201812D01*
X80073500Y-165214072D01*
X81978500Y-165214072D01*
X82102982Y-165201812D01*
X82222680Y-165165502D01*
X82332994Y-165106537D01*
X82429685Y-165027185D01*
X82509037Y-164930494D01*
X82553905Y-164846553D01*
X82679766Y-164949845D01*
X82955552Y-165097255D01*
X83254797Y-165188030D01*
X83566000Y-165218681D01*
X83877204Y-165188030D01*
X84176449Y-165097255D01*
X84452235Y-164949845D01*
X84693963Y-164751463D01*
X84836000Y-164578391D01*
X84978037Y-164751463D01*
X85219766Y-164949845D01*
X85495552Y-165097255D01*
X85794797Y-165188030D01*
X86106000Y-165218681D01*
X86417204Y-165188030D01*
X86716449Y-165097255D01*
X86992235Y-164949845D01*
X87233963Y-164751463D01*
X87432345Y-164509734D01*
X87579755Y-164233948D01*
X87670530Y-163934703D01*
X87693500Y-163701485D01*
X87693500Y-163450514D01*
X87670530Y-163217296D01*
X87579755Y-162918051D01*
X87432345Y-162642265D01*
X87233963Y-162400537D01*
X86992234Y-162202155D01*
X86716448Y-162054745D01*
X86417203Y-161963970D01*
X86106000Y-161933319D01*
X85794796Y-161963970D01*
X85495551Y-162054745D01*
X85219765Y-162202155D01*
X84978037Y-162400537D01*
X84836000Y-162573609D01*
X84693963Y-162400537D01*
X84452234Y-162202155D01*
X84176448Y-162054745D01*
X83877203Y-161963970D01*
X83566000Y-161933319D01*
X83254796Y-161963970D01*
X82955551Y-162054745D01*
X82679765Y-162202155D01*
X82553905Y-162305446D01*
X82509037Y-162221506D01*
X82429685Y-162124815D01*
X82332994Y-162045463D01*
X82222680Y-161986498D01*
X82102982Y-161950188D01*
X81978500Y-161937928D01*
X80073500Y-161937928D01*
X79949018Y-161950188D01*
X79829320Y-161986498D01*
X79719006Y-162045463D01*
X79622315Y-162124815D01*
X79542963Y-162221506D01*
X79483998Y-162331820D01*
X79447688Y-162451518D01*
X79435428Y-162576000D01*
X73845000Y-162576000D01*
X73845000Y-161784592D01*
X73822790Y-161559087D01*
X73735017Y-161269739D01*
X73592481Y-161003073D01*
X73400661Y-160769339D01*
X73166926Y-160577519D01*
X72900260Y-160434983D01*
X72610912Y-160347210D01*
X72310000Y-160317573D01*
X72009087Y-160347210D01*
X71719739Y-160434983D01*
X71453073Y-160577519D01*
X71219339Y-160769339D01*
X71060000Y-160963495D01*
X70900661Y-160769339D01*
X70666926Y-160577519D01*
X70400260Y-160434983D01*
X70110912Y-160347210D01*
X69810000Y-160317573D01*
X69509087Y-160347210D01*
X69219739Y-160434983D01*
X68953073Y-160577519D01*
X68719339Y-160769339D01*
X68560000Y-160963495D01*
X68400661Y-160769339D01*
X68166926Y-160577519D01*
X67900260Y-160434983D01*
X67610912Y-160347210D01*
X67310000Y-160317573D01*
X67009087Y-160347210D01*
X66719739Y-160434983D01*
X66453073Y-160577519D01*
X66219339Y-160769339D01*
X66027519Y-161003074D01*
X65884983Y-161269740D01*
X65797210Y-161559088D01*
X65775000Y-161784593D01*
X48666000Y-161784593D01*
X48666000Y-160887564D01*
X50514250Y-160885000D01*
X50673000Y-160726250D01*
X50673000Y-158877000D01*
X50927000Y-158877000D01*
X50927000Y-160726250D01*
X51085750Y-160885000D01*
X53300000Y-160888072D01*
X53424482Y-160875812D01*
X53544180Y-160839502D01*
X53654494Y-160780537D01*
X53751185Y-160701185D01*
X53830537Y-160604494D01*
X53889502Y-160494180D01*
X53925812Y-160374482D01*
X53938072Y-160250000D01*
X53935000Y-159035750D01*
X53776250Y-158877000D01*
X50927000Y-158877000D01*
X50673000Y-158877000D01*
X50653000Y-158877000D01*
X50653000Y-158623000D01*
X50673000Y-158623000D01*
X50673000Y-156773750D01*
X50927000Y-156773750D01*
X50927000Y-158623000D01*
X53776250Y-158623000D01*
X53935000Y-158464250D01*
X53938072Y-157250000D01*
X53925812Y-157125518D01*
X53889502Y-157005820D01*
X53830537Y-156895506D01*
X53751185Y-156798815D01*
X53654494Y-156719463D01*
X53544180Y-156660498D01*
X53424482Y-156624188D01*
X53300000Y-156611928D01*
X51085750Y-156615000D01*
X50927000Y-156773750D01*
X50673000Y-156773750D01*
X50514250Y-156615000D01*
X48666000Y-156612436D01*
X48666000Y-154538072D01*
X53300000Y-154538072D01*
X53424482Y-154525812D01*
X53544180Y-154489502D01*
X53654494Y-154430537D01*
X53751185Y-154351185D01*
X53789088Y-154305000D01*
X56550967Y-154305000D01*
X56512506Y-154320931D01*
X56116424Y-154585585D01*
X55779585Y-154922424D01*
X55514931Y-155318506D01*
X55332635Y-155758608D01*
X55239701Y-156225818D01*
X55239701Y-156702182D01*
X55332635Y-157169392D01*
X55514931Y-157609494D01*
X55779585Y-158005576D01*
X56116424Y-158342415D01*
X56512506Y-158607069D01*
X56952608Y-158789365D01*
X57419818Y-158882299D01*
X57896182Y-158882299D01*
X58363392Y-158789365D01*
X58803494Y-158607069D01*
X59199576Y-158342415D01*
X59536415Y-158005576D01*
X59739490Y-157701653D01*
X65997952Y-157701653D01*
X66153962Y-158017214D01*
X66528745Y-158208020D01*
X66933551Y-158322044D01*
X67352824Y-158354902D01*
X67770451Y-158305334D01*
X68170383Y-158175243D01*
X68466038Y-158017214D01*
X68622048Y-157701653D01*
X67310000Y-156389605D01*
X65997952Y-157701653D01*
X59739490Y-157701653D01*
X59801069Y-157609494D01*
X59983365Y-157169392D01*
X60076299Y-156702182D01*
X60076299Y-156252824D01*
X65165098Y-156252824D01*
X65214666Y-156670451D01*
X65344757Y-157070383D01*
X65502786Y-157366038D01*
X65818347Y-157522048D01*
X67130395Y-156210000D01*
X67489605Y-156210000D01*
X68801653Y-157522048D01*
X69117214Y-157366038D01*
X69308020Y-156991255D01*
X69422044Y-156586449D01*
X69454902Y-156167176D01*
X69405334Y-155749549D01*
X69275243Y-155349617D01*
X69117214Y-155053962D01*
X68801653Y-154897952D01*
X67489605Y-156210000D01*
X67130395Y-156210000D01*
X65818347Y-154897952D01*
X65502786Y-155053962D01*
X65311980Y-155428745D01*
X65197956Y-155833551D01*
X65165098Y-156252824D01*
X60076299Y-156252824D01*
X60076299Y-156225818D01*
X59983365Y-155758608D01*
X59801069Y-155318506D01*
X59536415Y-154922424D01*
X59199576Y-154585585D01*
X58803494Y-154320931D01*
X58765033Y-154305000D01*
X66336909Y-154305000D01*
X66153962Y-154402786D01*
X65997952Y-154718347D01*
X67310000Y-156030395D01*
X68622048Y-154718347D01*
X68466038Y-154402786D01*
X68273966Y-154305000D01*
X70076924Y-154305000D01*
X70405000Y-154633077D01*
X70405001Y-155230052D01*
X70257047Y-155587244D01*
X70175000Y-155999721D01*
X70175000Y-156420279D01*
X70257047Y-156832756D01*
X70417988Y-157221302D01*
X70651637Y-157570983D01*
X70949017Y-157868363D01*
X71298698Y-158102012D01*
X71687244Y-158262953D01*
X72099721Y-158345000D01*
X72520279Y-158345000D01*
X72932756Y-158262953D01*
X73321302Y-158102012D01*
X73670983Y-157868363D01*
X73968363Y-157570983D01*
X74202012Y-157221302D01*
X74362953Y-156832756D01*
X74445000Y-156420279D01*
X74445000Y-155999721D01*
X74362953Y-155587244D01*
X74215000Y-155230054D01*
X74215000Y-153937571D01*
X74224216Y-153843999D01*
X74215000Y-153750427D01*
X74215000Y-153750418D01*
X74187436Y-153470555D01*
X74078506Y-153111461D01*
X73901613Y-152780518D01*
X73663556Y-152490444D01*
X73590865Y-152430788D01*
X72279219Y-151119144D01*
X72219556Y-151046444D01*
X71929482Y-150808387D01*
X71598539Y-150631494D01*
X71239445Y-150522564D01*
X70959582Y-150495000D01*
X70959580Y-150495000D01*
X70866000Y-150485783D01*
X70772420Y-150495000D01*
X60619086Y-150495000D01*
X60617000Y-150145750D01*
X60458250Y-149987000D01*
X59309000Y-149987000D01*
X59309000Y-150007000D01*
X59055000Y-150007000D01*
X59055000Y-149987000D01*
X57905750Y-149987000D01*
X57747000Y-150145750D01*
X57744914Y-150495000D01*
X53789088Y-150495000D01*
X53751185Y-150448815D01*
X53654494Y-150369463D01*
X53544180Y-150310498D01*
X53424482Y-150274188D01*
X53300000Y-150261928D01*
X48666000Y-150261928D01*
X48666000Y-149060000D01*
X57743928Y-149060000D01*
X57747000Y-149574250D01*
X57905750Y-149733000D01*
X59055000Y-149733000D01*
X59055000Y-148583750D01*
X59309000Y-148583750D01*
X59309000Y-149733000D01*
X60458250Y-149733000D01*
X60617000Y-149574250D01*
X60620072Y-149060000D01*
X60607812Y-148935518D01*
X60571502Y-148815820D01*
X60512537Y-148705506D01*
X60433185Y-148608815D01*
X60336494Y-148529463D01*
X60226180Y-148470498D01*
X60106482Y-148434188D01*
X59982000Y-148421928D01*
X59467750Y-148425000D01*
X59309000Y-148583750D01*
X59055000Y-148583750D01*
X58896250Y-148425000D01*
X58382000Y-148421928D01*
X58257518Y-148434188D01*
X58137820Y-148470498D01*
X58027506Y-148529463D01*
X57930815Y-148608815D01*
X57851463Y-148705506D01*
X57792498Y-148815820D01*
X57756188Y-148935518D01*
X57743928Y-149060000D01*
X48666000Y-149060000D01*
X48666000Y-148188072D01*
X53300000Y-148188072D01*
X53424482Y-148175812D01*
X53544180Y-148139502D01*
X53654494Y-148080537D01*
X53751185Y-148001185D01*
X53830537Y-147904494D01*
X53889502Y-147794180D01*
X53925812Y-147674482D01*
X53938072Y-147550000D01*
X53938072Y-146218665D01*
X57747000Y-146218665D01*
X57747000Y-146501335D01*
X57802147Y-146778574D01*
X57910320Y-147039727D01*
X58067363Y-147274759D01*
X58267241Y-147474637D01*
X58502273Y-147631680D01*
X58763426Y-147739853D01*
X59040665Y-147795000D01*
X59323335Y-147795000D01*
X59600574Y-147739853D01*
X59861727Y-147631680D01*
X60096759Y-147474637D01*
X60296637Y-147274759D01*
X60453680Y-147039727D01*
X60561853Y-146778574D01*
X60581242Y-146681098D01*
X81181000Y-146681098D01*
X81181000Y-147150902D01*
X81272654Y-147611679D01*
X81452440Y-148045721D01*
X81713450Y-148436349D01*
X82045651Y-148768550D01*
X82436279Y-149029560D01*
X82870321Y-149209346D01*
X83331098Y-149301000D01*
X83800902Y-149301000D01*
X84261679Y-149209346D01*
X84695721Y-149029560D01*
X85086349Y-148768550D01*
X85418550Y-148436349D01*
X85679560Y-148045721D01*
X85859346Y-147611679D01*
X85951000Y-147150902D01*
X85951000Y-146681098D01*
X85859346Y-146220321D01*
X85679560Y-145786279D01*
X85418550Y-145395651D01*
X85086349Y-145063450D01*
X84695721Y-144802440D01*
X84261679Y-144622654D01*
X83800902Y-144531000D01*
X83331098Y-144531000D01*
X82870321Y-144622654D01*
X82436279Y-144802440D01*
X82045651Y-145063450D01*
X81713450Y-145395651D01*
X81452440Y-145786279D01*
X81272654Y-146220321D01*
X81181000Y-146681098D01*
X60581242Y-146681098D01*
X60617000Y-146501335D01*
X60617000Y-146218665D01*
X60561853Y-145941426D01*
X60453680Y-145680273D01*
X60296637Y-145445241D01*
X60096759Y-145245363D01*
X59861727Y-145088320D01*
X59600574Y-144980147D01*
X59323335Y-144925000D01*
X59040665Y-144925000D01*
X58763426Y-144980147D01*
X58502273Y-145088320D01*
X58267241Y-145245363D01*
X58067363Y-145445241D01*
X57910320Y-145680273D01*
X57802147Y-145941426D01*
X57747000Y-146218665D01*
X53938072Y-146218665D01*
X53938072Y-144550000D01*
X53925812Y-144425518D01*
X53889502Y-144305820D01*
X53830537Y-144195506D01*
X53809605Y-144170000D01*
X88105723Y-144170000D01*
X88157197Y-144175047D01*
%TD*%
M02*
