%TF.GenerationSoftware,KiCad,Pcbnew,(5.1.6)-1*%
%TF.CreationDate,2021-04-07T17:53:42+02:00*%
%TF.ProjectId,led_dimmer,6c65645f-6469-46d6-9d65-722e6b696361,rev?*%
%TF.SameCoordinates,Original*%
%TF.FileFunction,Copper,L1,Top*%
%TF.FilePolarity,Positive*%
%FSLAX46Y46*%
G04 Gerber Fmt 4.6, Leading zero omitted, Abs format (unit mm)*
G04 Created by KiCad (PCBNEW (5.1.6)-1) date 2021-04-07 17:53:42*
%MOMM*%
%LPD*%
G01*
G04 APERTURE LIST*
%TA.AperFunction,ComponentPad*%
%ADD10R,1.600000X1.600000*%
%TD*%
%TA.AperFunction,ComponentPad*%
%ADD11C,1.600000*%
%TD*%
%TA.AperFunction,SMDPad,CuDef*%
%ADD12R,1.200000X0.900000*%
%TD*%
%TA.AperFunction,ComponentPad*%
%ADD13R,5.000000X3.000000*%
%TD*%
%TA.AperFunction,ComponentPad*%
%ADD14R,1.905000X2.000000*%
%TD*%
%TA.AperFunction,ComponentPad*%
%ADD15O,1.905000X2.000000*%
%TD*%
%TA.AperFunction,ComponentPad*%
%ADD16C,3.000000*%
%TD*%
%TA.AperFunction,ComponentPad*%
%ADD17O,1.800000X3.000000*%
%TD*%
%TA.AperFunction,ViaPad*%
%ADD18C,0.800000*%
%TD*%
%TA.AperFunction,Conductor*%
%ADD19C,0.508000*%
%TD*%
%TA.AperFunction,Conductor*%
%ADD20C,0.254000*%
%TD*%
%TA.AperFunction,Conductor*%
%ADD21C,2.540000*%
%TD*%
G04 APERTURE END LIST*
%TO.P,U1,1*%
%TO.N,GND*%
%TA.AperFunction,SMDPad,CuDef*%
G36*
G01*
X76729000Y-150091000D02*
X76729000Y-150391000D01*
G75*
G02*
X76579000Y-150541000I-150000J0D01*
G01*
X74929000Y-150541000D01*
G75*
G02*
X74779000Y-150391000I0J150000D01*
G01*
X74779000Y-150091000D01*
G75*
G02*
X74929000Y-149941000I150000J0D01*
G01*
X76579000Y-149941000D01*
G75*
G02*
X76729000Y-150091000I0J-150000D01*
G01*
G37*
%TD.AperFunction*%
%TO.P,U1,2*%
%TO.N,Net-(C4-Pad1)*%
%TA.AperFunction,SMDPad,CuDef*%
G36*
G01*
X76729000Y-148821000D02*
X76729000Y-149121000D01*
G75*
G02*
X76579000Y-149271000I-150000J0D01*
G01*
X74929000Y-149271000D01*
G75*
G02*
X74779000Y-149121000I0J150000D01*
G01*
X74779000Y-148821000D01*
G75*
G02*
X74929000Y-148671000I150000J0D01*
G01*
X76579000Y-148671000D01*
G75*
G02*
X76729000Y-148821000I0J-150000D01*
G01*
G37*
%TD.AperFunction*%
%TO.P,U1,3*%
%TO.N,Net-(R1-Pad2)*%
%TA.AperFunction,SMDPad,CuDef*%
G36*
G01*
X76729000Y-147551000D02*
X76729000Y-147851000D01*
G75*
G02*
X76579000Y-148001000I-150000J0D01*
G01*
X74929000Y-148001000D01*
G75*
G02*
X74779000Y-147851000I0J150000D01*
G01*
X74779000Y-147551000D01*
G75*
G02*
X74929000Y-147401000I150000J0D01*
G01*
X76579000Y-147401000D01*
G75*
G02*
X76729000Y-147551000I0J-150000D01*
G01*
G37*
%TD.AperFunction*%
%TO.P,U1,4*%
%TO.N,12V_int*%
%TA.AperFunction,SMDPad,CuDef*%
G36*
G01*
X76729000Y-146281000D02*
X76729000Y-146581000D01*
G75*
G02*
X76579000Y-146731000I-150000J0D01*
G01*
X74929000Y-146731000D01*
G75*
G02*
X74779000Y-146581000I0J150000D01*
G01*
X74779000Y-146281000D01*
G75*
G02*
X74929000Y-146131000I150000J0D01*
G01*
X76579000Y-146131000D01*
G75*
G02*
X76729000Y-146281000I0J-150000D01*
G01*
G37*
%TD.AperFunction*%
%TO.P,U1,5*%
%TO.N,Net-(C3-Pad1)*%
%TA.AperFunction,SMDPad,CuDef*%
G36*
G01*
X71779000Y-146281000D02*
X71779000Y-146581000D01*
G75*
G02*
X71629000Y-146731000I-150000J0D01*
G01*
X69979000Y-146731000D01*
G75*
G02*
X69829000Y-146581000I0J150000D01*
G01*
X69829000Y-146281000D01*
G75*
G02*
X69979000Y-146131000I150000J0D01*
G01*
X71629000Y-146131000D01*
G75*
G02*
X71779000Y-146281000I0J-150000D01*
G01*
G37*
%TD.AperFunction*%
%TO.P,U1,6*%
%TO.N,Net-(C4-Pad1)*%
%TA.AperFunction,SMDPad,CuDef*%
G36*
G01*
X71779000Y-147551000D02*
X71779000Y-147851000D01*
G75*
G02*
X71629000Y-148001000I-150000J0D01*
G01*
X69979000Y-148001000D01*
G75*
G02*
X69829000Y-147851000I0J150000D01*
G01*
X69829000Y-147551000D01*
G75*
G02*
X69979000Y-147401000I150000J0D01*
G01*
X71629000Y-147401000D01*
G75*
G02*
X71779000Y-147551000I0J-150000D01*
G01*
G37*
%TD.AperFunction*%
%TO.P,U1,7*%
%TO.N,Net-(D1-Pad2)*%
%TA.AperFunction,SMDPad,CuDef*%
G36*
G01*
X71779000Y-148821000D02*
X71779000Y-149121000D01*
G75*
G02*
X71629000Y-149271000I-150000J0D01*
G01*
X69979000Y-149271000D01*
G75*
G02*
X69829000Y-149121000I0J150000D01*
G01*
X69829000Y-148821000D01*
G75*
G02*
X69979000Y-148671000I150000J0D01*
G01*
X71629000Y-148671000D01*
G75*
G02*
X71779000Y-148821000I0J-150000D01*
G01*
G37*
%TD.AperFunction*%
%TO.P,U1,8*%
%TO.N,12V_int*%
%TA.AperFunction,SMDPad,CuDef*%
G36*
G01*
X71779000Y-150091000D02*
X71779000Y-150391000D01*
G75*
G02*
X71629000Y-150541000I-150000J0D01*
G01*
X69979000Y-150541000D01*
G75*
G02*
X69829000Y-150391000I0J150000D01*
G01*
X69829000Y-150091000D01*
G75*
G02*
X69979000Y-149941000I150000J0D01*
G01*
X71629000Y-149941000D01*
G75*
G02*
X71779000Y-150091000I0J-150000D01*
G01*
G37*
%TD.AperFunction*%
%TD*%
D10*
%TO.P,C1,1*%
%TO.N,12V_int*%
X59182000Y-149860000D03*
D11*
%TO.P,C1,2*%
%TO.N,GND*%
X59182000Y-146360000D03*
%TD*%
%TO.P,C2,1*%
%TO.N,12V_int*%
%TA.AperFunction,SMDPad,CuDef*%
G36*
G01*
X68792000Y-151060999D02*
X68792000Y-151961001D01*
G75*
G02*
X68542001Y-152211000I-249999J0D01*
G01*
X67891999Y-152211000D01*
G75*
G02*
X67642000Y-151961001I0J249999D01*
G01*
X67642000Y-151060999D01*
G75*
G02*
X67891999Y-150811000I249999J0D01*
G01*
X68542001Y-150811000D01*
G75*
G02*
X68792000Y-151060999I0J-249999D01*
G01*
G37*
%TD.AperFunction*%
%TO.P,C2,2*%
%TO.N,GND*%
%TA.AperFunction,SMDPad,CuDef*%
G36*
G01*
X66742000Y-151060999D02*
X66742000Y-151961001D01*
G75*
G02*
X66492001Y-152211000I-249999J0D01*
G01*
X65841999Y-152211000D01*
G75*
G02*
X65592000Y-151961001I0J249999D01*
G01*
X65592000Y-151060999D01*
G75*
G02*
X65841999Y-150811000I249999J0D01*
G01*
X66492001Y-150811000D01*
G75*
G02*
X66742000Y-151060999I0J-249999D01*
G01*
G37*
%TD.AperFunction*%
%TD*%
%TO.P,C3,2*%
%TO.N,GND*%
%TA.AperFunction,SMDPad,CuDef*%
G36*
G01*
X66742000Y-145980999D02*
X66742000Y-146881001D01*
G75*
G02*
X66492001Y-147131000I-249999J0D01*
G01*
X65841999Y-147131000D01*
G75*
G02*
X65592000Y-146881001I0J249999D01*
G01*
X65592000Y-145980999D01*
G75*
G02*
X65841999Y-145731000I249999J0D01*
G01*
X66492001Y-145731000D01*
G75*
G02*
X66742000Y-145980999I0J-249999D01*
G01*
G37*
%TD.AperFunction*%
%TO.P,C3,1*%
%TO.N,Net-(C3-Pad1)*%
%TA.AperFunction,SMDPad,CuDef*%
G36*
G01*
X68792000Y-145980999D02*
X68792000Y-146881001D01*
G75*
G02*
X68542001Y-147131000I-249999J0D01*
G01*
X67891999Y-147131000D01*
G75*
G02*
X67642000Y-146881001I0J249999D01*
G01*
X67642000Y-145980999D01*
G75*
G02*
X67891999Y-145731000I249999J0D01*
G01*
X68542001Y-145731000D01*
G75*
G02*
X68792000Y-145980999I0J-249999D01*
G01*
G37*
%TD.AperFunction*%
%TD*%
%TO.P,C4,1*%
%TO.N,Net-(C4-Pad1)*%
%TA.AperFunction,SMDPad,CuDef*%
G36*
G01*
X68792000Y-148520999D02*
X68792000Y-149421001D01*
G75*
G02*
X68542001Y-149671000I-249999J0D01*
G01*
X67891999Y-149671000D01*
G75*
G02*
X67642000Y-149421001I0J249999D01*
G01*
X67642000Y-148520999D01*
G75*
G02*
X67891999Y-148271000I249999J0D01*
G01*
X68542001Y-148271000D01*
G75*
G02*
X68792000Y-148520999I0J-249999D01*
G01*
G37*
%TD.AperFunction*%
%TO.P,C4,2*%
%TO.N,GND*%
%TA.AperFunction,SMDPad,CuDef*%
G36*
G01*
X66742000Y-148520999D02*
X66742000Y-149421001D01*
G75*
G02*
X66492001Y-149671000I-249999J0D01*
G01*
X65841999Y-149671000D01*
G75*
G02*
X65592000Y-149421001I0J249999D01*
G01*
X65592000Y-148520999D01*
G75*
G02*
X65841999Y-148271000I249999J0D01*
G01*
X66492001Y-148271000D01*
G75*
G02*
X66742000Y-148520999I0J-249999D01*
G01*
G37*
%TD.AperFunction*%
%TD*%
D12*
%TO.P,D1,2*%
%TO.N,Net-(D1-Pad2)*%
X61087000Y-159768000D03*
%TO.P,D1,1*%
%TO.N,Net-(D1-Pad1)*%
X61087000Y-163068000D03*
%TD*%
%TO.P,D2,1*%
%TO.N,Net-(D1-Pad2)*%
X63627000Y-159768000D03*
%TO.P,D2,2*%
%TO.N,Net-(D2-Pad2)*%
X63627000Y-163068000D03*
%TD*%
D13*
%TO.P,+12V,1*%
%TO.N,+12V*%
X50800000Y-152400000D03*
%TD*%
%TO.P,GND,1*%
%TO.N,GND*%
X50800000Y-146050000D03*
%TD*%
%TO.P,LED+,1*%
%TO.N,12V_int*%
X50800000Y-158750000D03*
%TD*%
%TO.P,LED-,1*%
%TO.N,Net-(J4-Pad1)*%
X50800000Y-165100000D03*
%TD*%
D14*
%TO.P,Q1,1*%
%TO.N,Net-(Q1-Pad1)*%
X81026000Y-163576000D03*
D15*
%TO.P,Q1,2*%
%TO.N,Net-(J4-Pad1)*%
X83566000Y-163576000D03*
%TO.P,Q1,3*%
%TO.N,GND*%
X86106000Y-163576000D03*
%TD*%
%TO.P,R1,2*%
%TO.N,Net-(R1-Pad2)*%
%TA.AperFunction,SMDPad,CuDef*%
G36*
G01*
X77539001Y-153592000D02*
X76638999Y-153592000D01*
G75*
G02*
X76389000Y-153342001I0J249999D01*
G01*
X76389000Y-152691999D01*
G75*
G02*
X76638999Y-152442000I249999J0D01*
G01*
X77539001Y-152442000D01*
G75*
G02*
X77789000Y-152691999I0J-249999D01*
G01*
X77789000Y-153342001D01*
G75*
G02*
X77539001Y-153592000I-249999J0D01*
G01*
G37*
%TD.AperFunction*%
%TO.P,R1,1*%
%TO.N,Net-(Q1-Pad1)*%
%TA.AperFunction,SMDPad,CuDef*%
G36*
G01*
X77539001Y-155642000D02*
X76638999Y-155642000D01*
G75*
G02*
X76389000Y-155392001I0J249999D01*
G01*
X76389000Y-154741999D01*
G75*
G02*
X76638999Y-154492000I249999J0D01*
G01*
X77539001Y-154492000D01*
G75*
G02*
X77789000Y-154741999I0J-249999D01*
G01*
X77789000Y-155392001D01*
G75*
G02*
X77539001Y-155642000I-249999J0D01*
G01*
G37*
%TD.AperFunction*%
%TD*%
%TO.P,R2,1*%
%TO.N,12V_int*%
%TA.AperFunction,SMDPad,CuDef*%
G36*
G01*
X63303999Y-155363000D02*
X64204001Y-155363000D01*
G75*
G02*
X64454000Y-155612999I0J-249999D01*
G01*
X64454000Y-156263001D01*
G75*
G02*
X64204001Y-156513000I-249999J0D01*
G01*
X63303999Y-156513000D01*
G75*
G02*
X63054000Y-156263001I0J249999D01*
G01*
X63054000Y-155612999D01*
G75*
G02*
X63303999Y-155363000I249999J0D01*
G01*
G37*
%TD.AperFunction*%
%TO.P,R2,2*%
%TO.N,Net-(D1-Pad2)*%
%TA.AperFunction,SMDPad,CuDef*%
G36*
G01*
X63303999Y-157413000D02*
X64204001Y-157413000D01*
G75*
G02*
X64454000Y-157662999I0J-249999D01*
G01*
X64454000Y-158313001D01*
G75*
G02*
X64204001Y-158563000I-249999J0D01*
G01*
X63303999Y-158563000D01*
G75*
G02*
X63054000Y-158313001I0J249999D01*
G01*
X63054000Y-157662999D01*
G75*
G02*
X63303999Y-157413000I249999J0D01*
G01*
G37*
%TD.AperFunction*%
%TD*%
D16*
%TO.P,U2,4*%
%TO.N,12V_int*%
X67310000Y-156210000D03*
%TO.P,U2,5*%
%TO.N,+12V*%
X72310000Y-156210000D03*
D17*
%TO.P,U2,1*%
%TO.N,Net-(D2-Pad2)*%
X67310000Y-162460000D03*
%TO.P,U2,2*%
%TO.N,Net-(C4-Pad1)*%
X69810000Y-162460000D03*
%TO.P,U2,3*%
%TO.N,Net-(D1-Pad1)*%
X72310000Y-162460000D03*
%TD*%
D18*
%TO.N,12V_int*%
X77597000Y-146431000D03*
X69088000Y-150114000D03*
%TD*%
D19*
%TO.N,12V_int*%
X75754000Y-146431000D02*
X77597000Y-146431000D01*
X69224000Y-150504000D02*
X69215000Y-150495000D01*
X69487000Y-150241000D02*
X69224000Y-150504000D01*
X67038000Y-155938000D02*
X67310000Y-156210000D01*
X63754000Y-155938000D02*
X67038000Y-155938000D01*
X70804000Y-150241000D02*
X69487000Y-150241000D01*
X69088000Y-150640000D02*
X69024000Y-150704000D01*
X69088000Y-150114000D02*
X69088000Y-150640000D01*
X69224000Y-150504000D02*
X69024000Y-150704000D01*
X69024000Y-150704000D02*
X68217000Y-151511000D01*
D20*
%TO.N,GND*%
X86106000Y-163576000D02*
X86106000Y-155448000D01*
X86106000Y-155448000D02*
X84582000Y-153924000D01*
X84582000Y-153924000D02*
X79375000Y-153924000D01*
X79375000Y-153924000D02*
X79248000Y-154051000D01*
X79248000Y-154051000D02*
X75565000Y-154051000D01*
X66167000Y-151511000D02*
X63246000Y-151511000D01*
X63246000Y-151511000D02*
X60579000Y-154178000D01*
X60579000Y-154178000D02*
X60579000Y-155448000D01*
X60579000Y-155448000D02*
X62103000Y-156972000D01*
X62103000Y-156972000D02*
X64770000Y-156972000D01*
X64770000Y-156972000D02*
X65786000Y-157988000D01*
D21*
X50800000Y-146050000D02*
X55880000Y-146050000D01*
D19*
%TO.N,Net-(C3-Pad1)*%
X70804000Y-146431000D02*
X68217000Y-146431000D01*
%TO.N,Net-(C4-Pad1)*%
X69487000Y-147701000D02*
X68217000Y-148971000D01*
X70804000Y-147701000D02*
X69487000Y-147701000D01*
X71779000Y-147701000D02*
X72971010Y-148893010D01*
X70804000Y-147701000D02*
X71779000Y-147701000D01*
X76729000Y-148971000D02*
X77343000Y-149585000D01*
X75754000Y-148971000D02*
X76729000Y-148971000D01*
X77343000Y-150749000D02*
X77343000Y-151003000D01*
X77343000Y-149585000D02*
X77343000Y-150749000D01*
X77343000Y-151003000D02*
X76835000Y-151511000D01*
X76835000Y-151511000D02*
X73914000Y-151511000D01*
X72971010Y-151457010D02*
X73025000Y-151511000D01*
X72971010Y-150294990D02*
X72971010Y-151457010D01*
X72971010Y-148893010D02*
X72971010Y-150294990D01*
X73914000Y-151511000D02*
X73025000Y-151511000D01*
X70304010Y-161965990D02*
X69810000Y-162460000D01*
X72629276Y-151511000D02*
X70304010Y-153836266D01*
X70304010Y-153836266D02*
X70304010Y-161965990D01*
X73025000Y-151511000D02*
X72629276Y-151511000D01*
%TO.N,Net-(D1-Pad2)*%
X61087000Y-159768000D02*
X63627000Y-159768000D01*
X63754000Y-158750000D02*
X62736000Y-159768000D01*
X63754000Y-157988000D02*
X63754000Y-158750000D01*
X70804000Y-148971000D02*
X71779000Y-148971000D01*
X71779000Y-148971000D02*
X72263000Y-149455000D01*
X72263000Y-149455000D02*
X72263000Y-150876000D01*
X72263000Y-150876000D02*
X69596000Y-153543000D01*
X69596000Y-158242000D02*
X69596000Y-159766000D01*
X69596000Y-153543000D02*
X69596000Y-158242000D01*
X69596000Y-159766000D02*
X68856010Y-160505990D01*
X68856010Y-160505990D02*
X64411010Y-160505990D01*
X63673020Y-159768000D02*
X63627000Y-159768000D01*
X64411010Y-160505990D02*
X63673020Y-159768000D01*
%TO.N,Net-(D1-Pad1)*%
X71043990Y-164414010D02*
X72310000Y-163148000D01*
X72310000Y-163148000D02*
X72310000Y-162460000D01*
X61087000Y-163068000D02*
X61087000Y-163576000D01*
X61087000Y-163576000D02*
X61925010Y-164414010D01*
X61925010Y-164414010D02*
X71043990Y-164414010D01*
%TO.N,Net-(D2-Pad2)*%
X64138000Y-163706000D02*
X66064000Y-163706000D01*
X63627000Y-163068000D02*
X63627000Y-163195000D01*
X66064000Y-163706000D02*
X67310000Y-162460000D01*
X63627000Y-163195000D02*
X64138000Y-163706000D01*
D21*
%TO.N,Net-(J4-Pad1)*%
X83566000Y-165634502D02*
X83566000Y-163576000D01*
X83062482Y-166138020D02*
X83566000Y-165634502D01*
X55749902Y-166138020D02*
X83062482Y-166138020D01*
X50800000Y-165100000D02*
X54711882Y-165100000D01*
X54711882Y-165100000D02*
X55749902Y-166138020D01*
D19*
%TO.N,Net-(Q1-Pad1)*%
X77089000Y-155067000D02*
X79883000Y-155067000D01*
X81026000Y-156210000D02*
X81026000Y-163576000D01*
X79883000Y-155067000D02*
X81026000Y-156210000D01*
%TO.N,Net-(R1-Pad2)*%
X76729000Y-147701000D02*
X78105000Y-149077000D01*
X75754000Y-147701000D02*
X76729000Y-147701000D01*
X78105000Y-149077000D02*
X78105000Y-151892000D01*
X77089000Y-152908000D02*
X78105000Y-151892000D01*
X77089000Y-153017000D02*
X77089000Y-152908000D01*
%TD*%
D20*
%TO.N,GND*%
G36*
X88157197Y-144175047D02*
G01*
X88175662Y-144180622D01*
X88192694Y-144189678D01*
X88207643Y-144201870D01*
X88219938Y-144216732D01*
X88229111Y-144233696D01*
X88234817Y-144252129D01*
X88240001Y-144301455D01*
X88240000Y-166845723D01*
X88234953Y-166897195D01*
X88229377Y-166915663D01*
X88220322Y-166932693D01*
X88208129Y-166947643D01*
X88193266Y-166959939D01*
X88176303Y-166969111D01*
X88157871Y-166974817D01*
X88108554Y-166980000D01*
X84926169Y-166980000D01*
X85157613Y-166697984D01*
X85334506Y-166367041D01*
X85443436Y-166007947D01*
X85471000Y-165728084D01*
X85471000Y-165728082D01*
X85480217Y-165634502D01*
X85471000Y-165540922D01*
X85471000Y-165072713D01*
X85514906Y-165095571D01*
X85733020Y-165166563D01*
X85979000Y-165046594D01*
X85979000Y-163703000D01*
X86233000Y-163703000D01*
X86233000Y-165046594D01*
X86478980Y-165166563D01*
X86697094Y-165095571D01*
X86972923Y-164951969D01*
X87215437Y-164757315D01*
X87415316Y-164519089D01*
X87564879Y-164246446D01*
X87658378Y-163949863D01*
X87531570Y-163703000D01*
X86233000Y-163703000D01*
X85979000Y-163703000D01*
X85959000Y-163703000D01*
X85959000Y-163449000D01*
X85979000Y-163449000D01*
X85979000Y-162105406D01*
X86233000Y-162105406D01*
X86233000Y-163449000D01*
X87531570Y-163449000D01*
X87658378Y-163202137D01*
X87564879Y-162905554D01*
X87415316Y-162632911D01*
X87215437Y-162394685D01*
X86972923Y-162200031D01*
X86697094Y-162056429D01*
X86478980Y-161985437D01*
X86233000Y-162105406D01*
X85979000Y-162105406D01*
X85733020Y-161985437D01*
X85514906Y-162056429D01*
X85239077Y-162200031D01*
X85035356Y-162363547D01*
X84919556Y-162222444D01*
X84629482Y-161984387D01*
X84298539Y-161807494D01*
X83939445Y-161698564D01*
X83566000Y-161661783D01*
X83192556Y-161698564D01*
X82833462Y-161807494D01*
X82502519Y-161984387D01*
X82380546Y-162084488D01*
X82332994Y-162045463D01*
X82222680Y-161986498D01*
X82102982Y-161950188D01*
X81978500Y-161937928D01*
X81915000Y-161937928D01*
X81915000Y-156253659D01*
X81919300Y-156209999D01*
X81915000Y-156166334D01*
X81915000Y-156166333D01*
X81902136Y-156035726D01*
X81902136Y-156035724D01*
X81851302Y-155868147D01*
X81847589Y-155861200D01*
X81768753Y-155713709D01*
X81657659Y-155578341D01*
X81623743Y-155550507D01*
X80542499Y-154469264D01*
X80514659Y-154435341D01*
X80379291Y-154324247D01*
X80224851Y-154241697D01*
X80057274Y-154190864D01*
X79926667Y-154178000D01*
X79926660Y-154178000D01*
X79883000Y-154173700D01*
X79839340Y-154178000D01*
X78219454Y-154178000D01*
X78166962Y-154114038D01*
X78079184Y-154042000D01*
X78166962Y-153969962D01*
X78277405Y-153835387D01*
X78359472Y-153681851D01*
X78410008Y-153515255D01*
X78427072Y-153342001D01*
X78427072Y-152827164D01*
X78702741Y-152551495D01*
X78736659Y-152523659D01*
X78847753Y-152388291D01*
X78930303Y-152233851D01*
X78981136Y-152066274D01*
X78994000Y-151935667D01*
X78994000Y-151935660D01*
X78998300Y-151892000D01*
X78994000Y-151848340D01*
X78994000Y-149120660D01*
X78998300Y-149077000D01*
X78994000Y-149033340D01*
X78994000Y-149033333D01*
X78981136Y-148902726D01*
X78930303Y-148735149D01*
X78847753Y-148580709D01*
X78736659Y-148445341D01*
X78702743Y-148417507D01*
X77742559Y-147457324D01*
X77898898Y-147426226D01*
X78087256Y-147348205D01*
X78256774Y-147234937D01*
X78400937Y-147090774D01*
X78514205Y-146921256D01*
X78592226Y-146732898D01*
X78602529Y-146681098D01*
X81181000Y-146681098D01*
X81181000Y-147150902D01*
X81272654Y-147611679D01*
X81452440Y-148045721D01*
X81713450Y-148436349D01*
X82045651Y-148768550D01*
X82436279Y-149029560D01*
X82870321Y-149209346D01*
X83331098Y-149301000D01*
X83800902Y-149301000D01*
X84261679Y-149209346D01*
X84695721Y-149029560D01*
X85086349Y-148768550D01*
X85418550Y-148436349D01*
X85679560Y-148045721D01*
X85859346Y-147611679D01*
X85951000Y-147150902D01*
X85951000Y-146681098D01*
X85859346Y-146220321D01*
X85679560Y-145786279D01*
X85418550Y-145395651D01*
X85086349Y-145063450D01*
X84695721Y-144802440D01*
X84261679Y-144622654D01*
X83800902Y-144531000D01*
X83331098Y-144531000D01*
X82870321Y-144622654D01*
X82436279Y-144802440D01*
X82045651Y-145063450D01*
X81713450Y-145395651D01*
X81452440Y-145786279D01*
X81272654Y-146220321D01*
X81181000Y-146681098D01*
X78602529Y-146681098D01*
X78632000Y-146532939D01*
X78632000Y-146329061D01*
X78592226Y-146129102D01*
X78514205Y-145940744D01*
X78400937Y-145771226D01*
X78256774Y-145627063D01*
X78087256Y-145513795D01*
X77898898Y-145435774D01*
X77698939Y-145396000D01*
X77495061Y-145396000D01*
X77295102Y-145435774D01*
X77106744Y-145513795D01*
X77064532Y-145542000D01*
X76844596Y-145542000D01*
X76732745Y-145508071D01*
X76579000Y-145492928D01*
X74929000Y-145492928D01*
X74775255Y-145508071D01*
X74627418Y-145552916D01*
X74491171Y-145625742D01*
X74371749Y-145723749D01*
X74273742Y-145843171D01*
X74200916Y-145979418D01*
X74156071Y-146127255D01*
X74140928Y-146281000D01*
X74140928Y-146581000D01*
X74156071Y-146734745D01*
X74200916Y-146882582D01*
X74273742Y-147018829D01*
X74312454Y-147066000D01*
X74273742Y-147113171D01*
X74200916Y-147249418D01*
X74156071Y-147397255D01*
X74140928Y-147551000D01*
X74140928Y-147851000D01*
X74156071Y-148004745D01*
X74200916Y-148152582D01*
X74273742Y-148288829D01*
X74312454Y-148336000D01*
X74273742Y-148383171D01*
X74200916Y-148519418D01*
X74156071Y-148667255D01*
X74140928Y-148821000D01*
X74140928Y-149121000D01*
X74156071Y-149274745D01*
X74200916Y-149422582D01*
X74272730Y-149556936D01*
X74248463Y-149586506D01*
X74189498Y-149696820D01*
X74153188Y-149816518D01*
X74140928Y-149941000D01*
X74144000Y-149955250D01*
X74302750Y-150114000D01*
X75627000Y-150114000D01*
X75627000Y-150094000D01*
X75881000Y-150094000D01*
X75881000Y-150114000D01*
X75901000Y-150114000D01*
X75901000Y-150368000D01*
X75881000Y-150368000D01*
X75881000Y-150388000D01*
X75627000Y-150388000D01*
X75627000Y-150368000D01*
X74302750Y-150368000D01*
X74144000Y-150526750D01*
X74140928Y-150541000D01*
X74148906Y-150622000D01*
X73860010Y-150622000D01*
X73860010Y-148936670D01*
X73864310Y-148893010D01*
X73860010Y-148849350D01*
X73860010Y-148849343D01*
X73847146Y-148718736D01*
X73844152Y-148708864D01*
X73831530Y-148667255D01*
X73796313Y-148551159D01*
X73713763Y-148396719D01*
X73661190Y-148332659D01*
X73630505Y-148295269D01*
X73630504Y-148295268D01*
X73602669Y-148261351D01*
X73568753Y-148233517D01*
X72438499Y-147103264D01*
X72410659Y-147069341D01*
X72304032Y-146981834D01*
X72357084Y-146882582D01*
X72401929Y-146734745D01*
X72417072Y-146581000D01*
X72417072Y-146281000D01*
X72401929Y-146127255D01*
X72357084Y-145979418D01*
X72284258Y-145843171D01*
X72186251Y-145723749D01*
X72066829Y-145625742D01*
X71930582Y-145552916D01*
X71782745Y-145508071D01*
X71629000Y-145492928D01*
X69979000Y-145492928D01*
X69825255Y-145508071D01*
X69713404Y-145542000D01*
X69309476Y-145542000D01*
X69280405Y-145487613D01*
X69169962Y-145353038D01*
X69035387Y-145242595D01*
X68881851Y-145160528D01*
X68715255Y-145109992D01*
X68542001Y-145092928D01*
X67891999Y-145092928D01*
X67718745Y-145109992D01*
X67552149Y-145160528D01*
X67398613Y-145242595D01*
X67264038Y-145353038D01*
X67258658Y-145359594D01*
X67193185Y-145279815D01*
X67096494Y-145200463D01*
X66986180Y-145141498D01*
X66866482Y-145105188D01*
X66742000Y-145092928D01*
X66452750Y-145096000D01*
X66294000Y-145254750D01*
X66294000Y-146304000D01*
X66314000Y-146304000D01*
X66314000Y-146558000D01*
X66294000Y-146558000D01*
X66294000Y-147607250D01*
X66387750Y-147701000D01*
X66294000Y-147794750D01*
X66294000Y-148844000D01*
X66314000Y-148844000D01*
X66314000Y-149098000D01*
X66294000Y-149098000D01*
X66294000Y-150147250D01*
X66387750Y-150241000D01*
X66294000Y-150334750D01*
X66294000Y-151384000D01*
X66314000Y-151384000D01*
X66314000Y-151638000D01*
X66294000Y-151638000D01*
X66294000Y-152687250D01*
X66452750Y-152846000D01*
X66742000Y-152849072D01*
X66866482Y-152836812D01*
X66986180Y-152800502D01*
X67096494Y-152741537D01*
X67193185Y-152662185D01*
X67258658Y-152582406D01*
X67264038Y-152588962D01*
X67398613Y-152699405D01*
X67552149Y-152781472D01*
X67718745Y-152832008D01*
X67891999Y-152849072D01*
X68542001Y-152849072D01*
X68715255Y-152832008D01*
X68881851Y-152781472D01*
X69035387Y-152699405D01*
X69169962Y-152588962D01*
X69280405Y-152454387D01*
X69362472Y-152300851D01*
X69413008Y-152134255D01*
X69430072Y-151961001D01*
X69430072Y-151555163D01*
X69685736Y-151299499D01*
X69719659Y-151271659D01*
X69747499Y-151237736D01*
X69821738Y-151163497D01*
X69822303Y-151163034D01*
X69825255Y-151163929D01*
X69979000Y-151179072D01*
X70702692Y-151179072D01*
X68998264Y-152883501D01*
X68964341Y-152911341D01*
X68853247Y-153046710D01*
X68770697Y-153201150D01*
X68755924Y-153249852D01*
X68728586Y-153339975D01*
X68719864Y-153368727D01*
X68707000Y-153499334D01*
X68707000Y-153499340D01*
X68702700Y-153543000D01*
X68707000Y-153586660D01*
X68707000Y-154587654D01*
X68670983Y-154551637D01*
X68321302Y-154317988D01*
X67932756Y-154157047D01*
X67520279Y-154075000D01*
X67099721Y-154075000D01*
X66687244Y-154157047D01*
X66298698Y-154317988D01*
X65949017Y-154551637D01*
X65651637Y-154849017D01*
X65518013Y-155049000D01*
X64884454Y-155049000D01*
X64831962Y-154985038D01*
X64697387Y-154874595D01*
X64543851Y-154792528D01*
X64377255Y-154741992D01*
X64204001Y-154724928D01*
X63303999Y-154724928D01*
X63130745Y-154741992D01*
X62964149Y-154792528D01*
X62810613Y-154874595D01*
X62676038Y-154985038D01*
X62565595Y-155119613D01*
X62483528Y-155273149D01*
X62432992Y-155439745D01*
X62415928Y-155612999D01*
X62415928Y-156263001D01*
X62432992Y-156436255D01*
X62483528Y-156602851D01*
X62565595Y-156756387D01*
X62676038Y-156890962D01*
X62763816Y-156963000D01*
X62676038Y-157035038D01*
X62565595Y-157169613D01*
X62483528Y-157323149D01*
X62432992Y-157489745D01*
X62415928Y-157662999D01*
X62415928Y-158313001D01*
X62432992Y-158486255D01*
X62483528Y-158652851D01*
X62521978Y-158724787D01*
X62367765Y-158879000D01*
X62148185Y-158879000D01*
X62138185Y-158866815D01*
X62041494Y-158787463D01*
X61931180Y-158728498D01*
X61811482Y-158692188D01*
X61687000Y-158679928D01*
X60487000Y-158679928D01*
X60362518Y-158692188D01*
X60242820Y-158728498D01*
X60132506Y-158787463D01*
X60035815Y-158866815D01*
X59956463Y-158963506D01*
X59897498Y-159073820D01*
X59861188Y-159193518D01*
X59848928Y-159318000D01*
X59848928Y-160218000D01*
X59861188Y-160342482D01*
X59897498Y-160462180D01*
X59956463Y-160572494D01*
X60035815Y-160669185D01*
X60132506Y-160748537D01*
X60242820Y-160807502D01*
X60362518Y-160843812D01*
X60487000Y-160856072D01*
X61687000Y-160856072D01*
X61811482Y-160843812D01*
X61931180Y-160807502D01*
X62041494Y-160748537D01*
X62138185Y-160669185D01*
X62148185Y-160657000D01*
X62565815Y-160657000D01*
X62575815Y-160669185D01*
X62672506Y-160748537D01*
X62782820Y-160807502D01*
X62902518Y-160843812D01*
X63027000Y-160856072D01*
X63503856Y-160856072D01*
X63751515Y-161103731D01*
X63779351Y-161137649D01*
X63914719Y-161248743D01*
X64069159Y-161331293D01*
X64135068Y-161351286D01*
X64236734Y-161382126D01*
X64269934Y-161385396D01*
X64367343Y-161394990D01*
X64367349Y-161394990D01*
X64411009Y-161399290D01*
X64454669Y-161394990D01*
X65846989Y-161394990D01*
X65797210Y-161559088D01*
X65775000Y-161784593D01*
X65775000Y-162737765D01*
X65695765Y-162817000D01*
X64865072Y-162817000D01*
X64865072Y-162618000D01*
X64852812Y-162493518D01*
X64816502Y-162373820D01*
X64757537Y-162263506D01*
X64678185Y-162166815D01*
X64581494Y-162087463D01*
X64471180Y-162028498D01*
X64351482Y-161992188D01*
X64227000Y-161979928D01*
X63027000Y-161979928D01*
X62902518Y-161992188D01*
X62782820Y-162028498D01*
X62672506Y-162087463D01*
X62575815Y-162166815D01*
X62496463Y-162263506D01*
X62437498Y-162373820D01*
X62401188Y-162493518D01*
X62388928Y-162618000D01*
X62388928Y-163518000D01*
X62389618Y-163525010D01*
X62324382Y-163525010D01*
X62325072Y-163518000D01*
X62325072Y-162618000D01*
X62312812Y-162493518D01*
X62276502Y-162373820D01*
X62217537Y-162263506D01*
X62138185Y-162166815D01*
X62041494Y-162087463D01*
X61931180Y-162028498D01*
X61811482Y-161992188D01*
X61687000Y-161979928D01*
X60487000Y-161979928D01*
X60362518Y-161992188D01*
X60242820Y-162028498D01*
X60132506Y-162087463D01*
X60035815Y-162166815D01*
X59956463Y-162263506D01*
X59897498Y-162373820D01*
X59861188Y-162493518D01*
X59848928Y-162618000D01*
X59848928Y-163518000D01*
X59861188Y-163642482D01*
X59897498Y-163762180D01*
X59956463Y-163872494D01*
X60035815Y-163969185D01*
X60132506Y-164048537D01*
X60242820Y-164107502D01*
X60362518Y-164143812D01*
X60406499Y-164148144D01*
X60413006Y-164156072D01*
X60455342Y-164207659D01*
X60486244Y-164233020D01*
X56538977Y-164233020D01*
X56125102Y-163819145D01*
X56065438Y-163746444D01*
X55775364Y-163508387D01*
X55444421Y-163331494D01*
X55085327Y-163222564D01*
X54805464Y-163195000D01*
X54805462Y-163195000D01*
X54711882Y-163185783D01*
X54618302Y-163195000D01*
X53789088Y-163195000D01*
X53751185Y-163148815D01*
X53654494Y-163069463D01*
X53544180Y-163010498D01*
X53424482Y-162974188D01*
X53300000Y-162961928D01*
X48666000Y-162961928D01*
X48666000Y-160888072D01*
X53300000Y-160888072D01*
X53424482Y-160875812D01*
X53544180Y-160839502D01*
X53654494Y-160780537D01*
X53751185Y-160701185D01*
X53830537Y-160604494D01*
X53889502Y-160494180D01*
X53925812Y-160374482D01*
X53938072Y-160250000D01*
X53938072Y-157250000D01*
X53925812Y-157125518D01*
X53889502Y-157005820D01*
X53830537Y-156895506D01*
X53751185Y-156798815D01*
X53654494Y-156719463D01*
X53544180Y-156660498D01*
X53424482Y-156624188D01*
X53300000Y-156611928D01*
X48666000Y-156611928D01*
X48666000Y-156225818D01*
X55239701Y-156225818D01*
X55239701Y-156702182D01*
X55332635Y-157169392D01*
X55514931Y-157609494D01*
X55779585Y-158005576D01*
X56116424Y-158342415D01*
X56512506Y-158607069D01*
X56952608Y-158789365D01*
X57419818Y-158882299D01*
X57896182Y-158882299D01*
X58363392Y-158789365D01*
X58803494Y-158607069D01*
X59199576Y-158342415D01*
X59536415Y-158005576D01*
X59801069Y-157609494D01*
X59983365Y-157169392D01*
X60076299Y-156702182D01*
X60076299Y-156225818D01*
X59983365Y-155758608D01*
X59801069Y-155318506D01*
X59536415Y-154922424D01*
X59199576Y-154585585D01*
X58803494Y-154320931D01*
X58363392Y-154138635D01*
X57896182Y-154045701D01*
X57419818Y-154045701D01*
X56952608Y-154138635D01*
X56512506Y-154320931D01*
X56116424Y-154585585D01*
X55779585Y-154922424D01*
X55514931Y-155318506D01*
X55332635Y-155758608D01*
X55239701Y-156225818D01*
X48666000Y-156225818D01*
X48666000Y-154538072D01*
X53300000Y-154538072D01*
X53424482Y-154525812D01*
X53544180Y-154489502D01*
X53654494Y-154430537D01*
X53751185Y-154351185D01*
X53830537Y-154254494D01*
X53889502Y-154144180D01*
X53925812Y-154024482D01*
X53938072Y-153900000D01*
X53938072Y-152211000D01*
X64953928Y-152211000D01*
X64966188Y-152335482D01*
X65002498Y-152455180D01*
X65061463Y-152565494D01*
X65140815Y-152662185D01*
X65237506Y-152741537D01*
X65347820Y-152800502D01*
X65467518Y-152836812D01*
X65592000Y-152849072D01*
X65881250Y-152846000D01*
X66040000Y-152687250D01*
X66040000Y-151638000D01*
X65115750Y-151638000D01*
X64957000Y-151796750D01*
X64953928Y-152211000D01*
X53938072Y-152211000D01*
X53938072Y-150900000D01*
X53925812Y-150775518D01*
X53889502Y-150655820D01*
X53830537Y-150545506D01*
X53751185Y-150448815D01*
X53654494Y-150369463D01*
X53544180Y-150310498D01*
X53424482Y-150274188D01*
X53300000Y-150261928D01*
X48666000Y-150261928D01*
X48666000Y-149060000D01*
X57743928Y-149060000D01*
X57743928Y-150660000D01*
X57756188Y-150784482D01*
X57792498Y-150904180D01*
X57851463Y-151014494D01*
X57930815Y-151111185D01*
X58027506Y-151190537D01*
X58137820Y-151249502D01*
X58257518Y-151285812D01*
X58382000Y-151298072D01*
X59982000Y-151298072D01*
X60106482Y-151285812D01*
X60226180Y-151249502D01*
X60336494Y-151190537D01*
X60433185Y-151111185D01*
X60512537Y-151014494D01*
X60571502Y-150904180D01*
X60607812Y-150784482D01*
X60620072Y-150660000D01*
X60620072Y-149671000D01*
X64953928Y-149671000D01*
X64966188Y-149795482D01*
X65002498Y-149915180D01*
X65061463Y-150025494D01*
X65140815Y-150122185D01*
X65237506Y-150201537D01*
X65311335Y-150241000D01*
X65237506Y-150280463D01*
X65140815Y-150359815D01*
X65061463Y-150456506D01*
X65002498Y-150566820D01*
X64966188Y-150686518D01*
X64953928Y-150811000D01*
X64957000Y-151225250D01*
X65115750Y-151384000D01*
X66040000Y-151384000D01*
X66040000Y-150334750D01*
X65946250Y-150241000D01*
X66040000Y-150147250D01*
X66040000Y-149098000D01*
X65115750Y-149098000D01*
X64957000Y-149256750D01*
X64953928Y-149671000D01*
X60620072Y-149671000D01*
X60620072Y-149060000D01*
X60607812Y-148935518D01*
X60571502Y-148815820D01*
X60512537Y-148705506D01*
X60433185Y-148608815D01*
X60336494Y-148529463D01*
X60226180Y-148470498D01*
X60106482Y-148434188D01*
X59982000Y-148421928D01*
X58382000Y-148421928D01*
X58257518Y-148434188D01*
X58137820Y-148470498D01*
X58027506Y-148529463D01*
X57930815Y-148608815D01*
X57851463Y-148705506D01*
X57792498Y-148815820D01*
X57756188Y-148935518D01*
X57743928Y-149060000D01*
X48666000Y-149060000D01*
X48666000Y-148187564D01*
X50514250Y-148185000D01*
X50673000Y-148026250D01*
X50673000Y-146177000D01*
X50927000Y-146177000D01*
X50927000Y-148026250D01*
X51085750Y-148185000D01*
X53300000Y-148188072D01*
X53424482Y-148175812D01*
X53544180Y-148139502D01*
X53654494Y-148080537D01*
X53751185Y-148001185D01*
X53830537Y-147904494D01*
X53889502Y-147794180D01*
X53925812Y-147674482D01*
X53938072Y-147550000D01*
X53937573Y-147352702D01*
X58368903Y-147352702D01*
X58440486Y-147596671D01*
X58695996Y-147717571D01*
X58970184Y-147786300D01*
X59252512Y-147800217D01*
X59532130Y-147758787D01*
X59798292Y-147663603D01*
X59923514Y-147596671D01*
X59995097Y-147352702D01*
X59182000Y-146539605D01*
X58368903Y-147352702D01*
X53937573Y-147352702D01*
X53935240Y-146430512D01*
X57741783Y-146430512D01*
X57783213Y-146710130D01*
X57878397Y-146976292D01*
X57945329Y-147101514D01*
X58189298Y-147173097D01*
X59002395Y-146360000D01*
X59361605Y-146360000D01*
X60174702Y-147173097D01*
X60318176Y-147131000D01*
X64953928Y-147131000D01*
X64966188Y-147255482D01*
X65002498Y-147375180D01*
X65061463Y-147485494D01*
X65140815Y-147582185D01*
X65237506Y-147661537D01*
X65311335Y-147701000D01*
X65237506Y-147740463D01*
X65140815Y-147819815D01*
X65061463Y-147916506D01*
X65002498Y-148026820D01*
X64966188Y-148146518D01*
X64953928Y-148271000D01*
X64957000Y-148685250D01*
X65115750Y-148844000D01*
X66040000Y-148844000D01*
X66040000Y-147794750D01*
X65946250Y-147701000D01*
X66040000Y-147607250D01*
X66040000Y-146558000D01*
X65115750Y-146558000D01*
X64957000Y-146716750D01*
X64953928Y-147131000D01*
X60318176Y-147131000D01*
X60418671Y-147101514D01*
X60539571Y-146846004D01*
X60608300Y-146571816D01*
X60622217Y-146289488D01*
X60580787Y-146009870D01*
X60485603Y-145743708D01*
X60478811Y-145731000D01*
X64953928Y-145731000D01*
X64957000Y-146145250D01*
X65115750Y-146304000D01*
X66040000Y-146304000D01*
X66040000Y-145254750D01*
X65881250Y-145096000D01*
X65592000Y-145092928D01*
X65467518Y-145105188D01*
X65347820Y-145141498D01*
X65237506Y-145200463D01*
X65140815Y-145279815D01*
X65061463Y-145376506D01*
X65002498Y-145486820D01*
X64966188Y-145606518D01*
X64953928Y-145731000D01*
X60478811Y-145731000D01*
X60418671Y-145618486D01*
X60174702Y-145546903D01*
X59361605Y-146360000D01*
X59002395Y-146360000D01*
X58189298Y-145546903D01*
X57945329Y-145618486D01*
X57824429Y-145873996D01*
X57755700Y-146148184D01*
X57741783Y-146430512D01*
X53935240Y-146430512D01*
X53935000Y-146335750D01*
X53776250Y-146177000D01*
X50927000Y-146177000D01*
X50673000Y-146177000D01*
X50653000Y-146177000D01*
X50653000Y-145923000D01*
X50673000Y-145923000D01*
X50673000Y-145903000D01*
X50927000Y-145903000D01*
X50927000Y-145923000D01*
X53776250Y-145923000D01*
X53935000Y-145764250D01*
X53936004Y-145367298D01*
X58368903Y-145367298D01*
X59182000Y-146180395D01*
X59995097Y-145367298D01*
X59923514Y-145123329D01*
X59668004Y-145002429D01*
X59393816Y-144933700D01*
X59111488Y-144919783D01*
X58831870Y-144961213D01*
X58565708Y-145056397D01*
X58440486Y-145123329D01*
X58368903Y-145367298D01*
X53936004Y-145367298D01*
X53938072Y-144550000D01*
X53925812Y-144425518D01*
X53889502Y-144305820D01*
X53830537Y-144195506D01*
X53809605Y-144170000D01*
X88105723Y-144170000D01*
X88157197Y-144175047D01*
G37*
X88157197Y-144175047D02*
X88175662Y-144180622D01*
X88192694Y-144189678D01*
X88207643Y-144201870D01*
X88219938Y-144216732D01*
X88229111Y-144233696D01*
X88234817Y-144252129D01*
X88240001Y-144301455D01*
X88240000Y-166845723D01*
X88234953Y-166897195D01*
X88229377Y-166915663D01*
X88220322Y-166932693D01*
X88208129Y-166947643D01*
X88193266Y-166959939D01*
X88176303Y-166969111D01*
X88157871Y-166974817D01*
X88108554Y-166980000D01*
X84926169Y-166980000D01*
X85157613Y-166697984D01*
X85334506Y-166367041D01*
X85443436Y-166007947D01*
X85471000Y-165728084D01*
X85471000Y-165728082D01*
X85480217Y-165634502D01*
X85471000Y-165540922D01*
X85471000Y-165072713D01*
X85514906Y-165095571D01*
X85733020Y-165166563D01*
X85979000Y-165046594D01*
X85979000Y-163703000D01*
X86233000Y-163703000D01*
X86233000Y-165046594D01*
X86478980Y-165166563D01*
X86697094Y-165095571D01*
X86972923Y-164951969D01*
X87215437Y-164757315D01*
X87415316Y-164519089D01*
X87564879Y-164246446D01*
X87658378Y-163949863D01*
X87531570Y-163703000D01*
X86233000Y-163703000D01*
X85979000Y-163703000D01*
X85959000Y-163703000D01*
X85959000Y-163449000D01*
X85979000Y-163449000D01*
X85979000Y-162105406D01*
X86233000Y-162105406D01*
X86233000Y-163449000D01*
X87531570Y-163449000D01*
X87658378Y-163202137D01*
X87564879Y-162905554D01*
X87415316Y-162632911D01*
X87215437Y-162394685D01*
X86972923Y-162200031D01*
X86697094Y-162056429D01*
X86478980Y-161985437D01*
X86233000Y-162105406D01*
X85979000Y-162105406D01*
X85733020Y-161985437D01*
X85514906Y-162056429D01*
X85239077Y-162200031D01*
X85035356Y-162363547D01*
X84919556Y-162222444D01*
X84629482Y-161984387D01*
X84298539Y-161807494D01*
X83939445Y-161698564D01*
X83566000Y-161661783D01*
X83192556Y-161698564D01*
X82833462Y-161807494D01*
X82502519Y-161984387D01*
X82380546Y-162084488D01*
X82332994Y-162045463D01*
X82222680Y-161986498D01*
X82102982Y-161950188D01*
X81978500Y-161937928D01*
X81915000Y-161937928D01*
X81915000Y-156253659D01*
X81919300Y-156209999D01*
X81915000Y-156166334D01*
X81915000Y-156166333D01*
X81902136Y-156035726D01*
X81902136Y-156035724D01*
X81851302Y-155868147D01*
X81847589Y-155861200D01*
X81768753Y-155713709D01*
X81657659Y-155578341D01*
X81623743Y-155550507D01*
X80542499Y-154469264D01*
X80514659Y-154435341D01*
X80379291Y-154324247D01*
X80224851Y-154241697D01*
X80057274Y-154190864D01*
X79926667Y-154178000D01*
X79926660Y-154178000D01*
X79883000Y-154173700D01*
X79839340Y-154178000D01*
X78219454Y-154178000D01*
X78166962Y-154114038D01*
X78079184Y-154042000D01*
X78166962Y-153969962D01*
X78277405Y-153835387D01*
X78359472Y-153681851D01*
X78410008Y-153515255D01*
X78427072Y-153342001D01*
X78427072Y-152827164D01*
X78702741Y-152551495D01*
X78736659Y-152523659D01*
X78847753Y-152388291D01*
X78930303Y-152233851D01*
X78981136Y-152066274D01*
X78994000Y-151935667D01*
X78994000Y-151935660D01*
X78998300Y-151892000D01*
X78994000Y-151848340D01*
X78994000Y-149120660D01*
X78998300Y-149077000D01*
X78994000Y-149033340D01*
X78994000Y-149033333D01*
X78981136Y-148902726D01*
X78930303Y-148735149D01*
X78847753Y-148580709D01*
X78736659Y-148445341D01*
X78702743Y-148417507D01*
X77742559Y-147457324D01*
X77898898Y-147426226D01*
X78087256Y-147348205D01*
X78256774Y-147234937D01*
X78400937Y-147090774D01*
X78514205Y-146921256D01*
X78592226Y-146732898D01*
X78602529Y-146681098D01*
X81181000Y-146681098D01*
X81181000Y-147150902D01*
X81272654Y-147611679D01*
X81452440Y-148045721D01*
X81713450Y-148436349D01*
X82045651Y-148768550D01*
X82436279Y-149029560D01*
X82870321Y-149209346D01*
X83331098Y-149301000D01*
X83800902Y-149301000D01*
X84261679Y-149209346D01*
X84695721Y-149029560D01*
X85086349Y-148768550D01*
X85418550Y-148436349D01*
X85679560Y-148045721D01*
X85859346Y-147611679D01*
X85951000Y-147150902D01*
X85951000Y-146681098D01*
X85859346Y-146220321D01*
X85679560Y-145786279D01*
X85418550Y-145395651D01*
X85086349Y-145063450D01*
X84695721Y-144802440D01*
X84261679Y-144622654D01*
X83800902Y-144531000D01*
X83331098Y-144531000D01*
X82870321Y-144622654D01*
X82436279Y-144802440D01*
X82045651Y-145063450D01*
X81713450Y-145395651D01*
X81452440Y-145786279D01*
X81272654Y-146220321D01*
X81181000Y-146681098D01*
X78602529Y-146681098D01*
X78632000Y-146532939D01*
X78632000Y-146329061D01*
X78592226Y-146129102D01*
X78514205Y-145940744D01*
X78400937Y-145771226D01*
X78256774Y-145627063D01*
X78087256Y-145513795D01*
X77898898Y-145435774D01*
X77698939Y-145396000D01*
X77495061Y-145396000D01*
X77295102Y-145435774D01*
X77106744Y-145513795D01*
X77064532Y-145542000D01*
X76844596Y-145542000D01*
X76732745Y-145508071D01*
X76579000Y-145492928D01*
X74929000Y-145492928D01*
X74775255Y-145508071D01*
X74627418Y-145552916D01*
X74491171Y-145625742D01*
X74371749Y-145723749D01*
X74273742Y-145843171D01*
X74200916Y-145979418D01*
X74156071Y-146127255D01*
X74140928Y-146281000D01*
X74140928Y-146581000D01*
X74156071Y-146734745D01*
X74200916Y-146882582D01*
X74273742Y-147018829D01*
X74312454Y-147066000D01*
X74273742Y-147113171D01*
X74200916Y-147249418D01*
X74156071Y-147397255D01*
X74140928Y-147551000D01*
X74140928Y-147851000D01*
X74156071Y-148004745D01*
X74200916Y-148152582D01*
X74273742Y-148288829D01*
X74312454Y-148336000D01*
X74273742Y-148383171D01*
X74200916Y-148519418D01*
X74156071Y-148667255D01*
X74140928Y-148821000D01*
X74140928Y-149121000D01*
X74156071Y-149274745D01*
X74200916Y-149422582D01*
X74272730Y-149556936D01*
X74248463Y-149586506D01*
X74189498Y-149696820D01*
X74153188Y-149816518D01*
X74140928Y-149941000D01*
X74144000Y-149955250D01*
X74302750Y-150114000D01*
X75627000Y-150114000D01*
X75627000Y-150094000D01*
X75881000Y-150094000D01*
X75881000Y-150114000D01*
X75901000Y-150114000D01*
X75901000Y-150368000D01*
X75881000Y-150368000D01*
X75881000Y-150388000D01*
X75627000Y-150388000D01*
X75627000Y-150368000D01*
X74302750Y-150368000D01*
X74144000Y-150526750D01*
X74140928Y-150541000D01*
X74148906Y-150622000D01*
X73860010Y-150622000D01*
X73860010Y-148936670D01*
X73864310Y-148893010D01*
X73860010Y-148849350D01*
X73860010Y-148849343D01*
X73847146Y-148718736D01*
X73844152Y-148708864D01*
X73831530Y-148667255D01*
X73796313Y-148551159D01*
X73713763Y-148396719D01*
X73661190Y-148332659D01*
X73630505Y-148295269D01*
X73630504Y-148295268D01*
X73602669Y-148261351D01*
X73568753Y-148233517D01*
X72438499Y-147103264D01*
X72410659Y-147069341D01*
X72304032Y-146981834D01*
X72357084Y-146882582D01*
X72401929Y-146734745D01*
X72417072Y-146581000D01*
X72417072Y-146281000D01*
X72401929Y-146127255D01*
X72357084Y-145979418D01*
X72284258Y-145843171D01*
X72186251Y-145723749D01*
X72066829Y-145625742D01*
X71930582Y-145552916D01*
X71782745Y-145508071D01*
X71629000Y-145492928D01*
X69979000Y-145492928D01*
X69825255Y-145508071D01*
X69713404Y-145542000D01*
X69309476Y-145542000D01*
X69280405Y-145487613D01*
X69169962Y-145353038D01*
X69035387Y-145242595D01*
X68881851Y-145160528D01*
X68715255Y-145109992D01*
X68542001Y-145092928D01*
X67891999Y-145092928D01*
X67718745Y-145109992D01*
X67552149Y-145160528D01*
X67398613Y-145242595D01*
X67264038Y-145353038D01*
X67258658Y-145359594D01*
X67193185Y-145279815D01*
X67096494Y-145200463D01*
X66986180Y-145141498D01*
X66866482Y-145105188D01*
X66742000Y-145092928D01*
X66452750Y-145096000D01*
X66294000Y-145254750D01*
X66294000Y-146304000D01*
X66314000Y-146304000D01*
X66314000Y-146558000D01*
X66294000Y-146558000D01*
X66294000Y-147607250D01*
X66387750Y-147701000D01*
X66294000Y-147794750D01*
X66294000Y-148844000D01*
X66314000Y-148844000D01*
X66314000Y-149098000D01*
X66294000Y-149098000D01*
X66294000Y-150147250D01*
X66387750Y-150241000D01*
X66294000Y-150334750D01*
X66294000Y-151384000D01*
X66314000Y-151384000D01*
X66314000Y-151638000D01*
X66294000Y-151638000D01*
X66294000Y-152687250D01*
X66452750Y-152846000D01*
X66742000Y-152849072D01*
X66866482Y-152836812D01*
X66986180Y-152800502D01*
X67096494Y-152741537D01*
X67193185Y-152662185D01*
X67258658Y-152582406D01*
X67264038Y-152588962D01*
X67398613Y-152699405D01*
X67552149Y-152781472D01*
X67718745Y-152832008D01*
X67891999Y-152849072D01*
X68542001Y-152849072D01*
X68715255Y-152832008D01*
X68881851Y-152781472D01*
X69035387Y-152699405D01*
X69169962Y-152588962D01*
X69280405Y-152454387D01*
X69362472Y-152300851D01*
X69413008Y-152134255D01*
X69430072Y-151961001D01*
X69430072Y-151555163D01*
X69685736Y-151299499D01*
X69719659Y-151271659D01*
X69747499Y-151237736D01*
X69821738Y-151163497D01*
X69822303Y-151163034D01*
X69825255Y-151163929D01*
X69979000Y-151179072D01*
X70702692Y-151179072D01*
X68998264Y-152883501D01*
X68964341Y-152911341D01*
X68853247Y-153046710D01*
X68770697Y-153201150D01*
X68755924Y-153249852D01*
X68728586Y-153339975D01*
X68719864Y-153368727D01*
X68707000Y-153499334D01*
X68707000Y-153499340D01*
X68702700Y-153543000D01*
X68707000Y-153586660D01*
X68707000Y-154587654D01*
X68670983Y-154551637D01*
X68321302Y-154317988D01*
X67932756Y-154157047D01*
X67520279Y-154075000D01*
X67099721Y-154075000D01*
X66687244Y-154157047D01*
X66298698Y-154317988D01*
X65949017Y-154551637D01*
X65651637Y-154849017D01*
X65518013Y-155049000D01*
X64884454Y-155049000D01*
X64831962Y-154985038D01*
X64697387Y-154874595D01*
X64543851Y-154792528D01*
X64377255Y-154741992D01*
X64204001Y-154724928D01*
X63303999Y-154724928D01*
X63130745Y-154741992D01*
X62964149Y-154792528D01*
X62810613Y-154874595D01*
X62676038Y-154985038D01*
X62565595Y-155119613D01*
X62483528Y-155273149D01*
X62432992Y-155439745D01*
X62415928Y-155612999D01*
X62415928Y-156263001D01*
X62432992Y-156436255D01*
X62483528Y-156602851D01*
X62565595Y-156756387D01*
X62676038Y-156890962D01*
X62763816Y-156963000D01*
X62676038Y-157035038D01*
X62565595Y-157169613D01*
X62483528Y-157323149D01*
X62432992Y-157489745D01*
X62415928Y-157662999D01*
X62415928Y-158313001D01*
X62432992Y-158486255D01*
X62483528Y-158652851D01*
X62521978Y-158724787D01*
X62367765Y-158879000D01*
X62148185Y-158879000D01*
X62138185Y-158866815D01*
X62041494Y-158787463D01*
X61931180Y-158728498D01*
X61811482Y-158692188D01*
X61687000Y-158679928D01*
X60487000Y-158679928D01*
X60362518Y-158692188D01*
X60242820Y-158728498D01*
X60132506Y-158787463D01*
X60035815Y-158866815D01*
X59956463Y-158963506D01*
X59897498Y-159073820D01*
X59861188Y-159193518D01*
X59848928Y-159318000D01*
X59848928Y-160218000D01*
X59861188Y-160342482D01*
X59897498Y-160462180D01*
X59956463Y-160572494D01*
X60035815Y-160669185D01*
X60132506Y-160748537D01*
X60242820Y-160807502D01*
X60362518Y-160843812D01*
X60487000Y-160856072D01*
X61687000Y-160856072D01*
X61811482Y-160843812D01*
X61931180Y-160807502D01*
X62041494Y-160748537D01*
X62138185Y-160669185D01*
X62148185Y-160657000D01*
X62565815Y-160657000D01*
X62575815Y-160669185D01*
X62672506Y-160748537D01*
X62782820Y-160807502D01*
X62902518Y-160843812D01*
X63027000Y-160856072D01*
X63503856Y-160856072D01*
X63751515Y-161103731D01*
X63779351Y-161137649D01*
X63914719Y-161248743D01*
X64069159Y-161331293D01*
X64135068Y-161351286D01*
X64236734Y-161382126D01*
X64269934Y-161385396D01*
X64367343Y-161394990D01*
X64367349Y-161394990D01*
X64411009Y-161399290D01*
X64454669Y-161394990D01*
X65846989Y-161394990D01*
X65797210Y-161559088D01*
X65775000Y-161784593D01*
X65775000Y-162737765D01*
X65695765Y-162817000D01*
X64865072Y-162817000D01*
X64865072Y-162618000D01*
X64852812Y-162493518D01*
X64816502Y-162373820D01*
X64757537Y-162263506D01*
X64678185Y-162166815D01*
X64581494Y-162087463D01*
X64471180Y-162028498D01*
X64351482Y-161992188D01*
X64227000Y-161979928D01*
X63027000Y-161979928D01*
X62902518Y-161992188D01*
X62782820Y-162028498D01*
X62672506Y-162087463D01*
X62575815Y-162166815D01*
X62496463Y-162263506D01*
X62437498Y-162373820D01*
X62401188Y-162493518D01*
X62388928Y-162618000D01*
X62388928Y-163518000D01*
X62389618Y-163525010D01*
X62324382Y-163525010D01*
X62325072Y-163518000D01*
X62325072Y-162618000D01*
X62312812Y-162493518D01*
X62276502Y-162373820D01*
X62217537Y-162263506D01*
X62138185Y-162166815D01*
X62041494Y-162087463D01*
X61931180Y-162028498D01*
X61811482Y-161992188D01*
X61687000Y-161979928D01*
X60487000Y-161979928D01*
X60362518Y-161992188D01*
X60242820Y-162028498D01*
X60132506Y-162087463D01*
X60035815Y-162166815D01*
X59956463Y-162263506D01*
X59897498Y-162373820D01*
X59861188Y-162493518D01*
X59848928Y-162618000D01*
X59848928Y-163518000D01*
X59861188Y-163642482D01*
X59897498Y-163762180D01*
X59956463Y-163872494D01*
X60035815Y-163969185D01*
X60132506Y-164048537D01*
X60242820Y-164107502D01*
X60362518Y-164143812D01*
X60406499Y-164148144D01*
X60413006Y-164156072D01*
X60455342Y-164207659D01*
X60486244Y-164233020D01*
X56538977Y-164233020D01*
X56125102Y-163819145D01*
X56065438Y-163746444D01*
X55775364Y-163508387D01*
X55444421Y-163331494D01*
X55085327Y-163222564D01*
X54805464Y-163195000D01*
X54805462Y-163195000D01*
X54711882Y-163185783D01*
X54618302Y-163195000D01*
X53789088Y-163195000D01*
X53751185Y-163148815D01*
X53654494Y-163069463D01*
X53544180Y-163010498D01*
X53424482Y-162974188D01*
X53300000Y-162961928D01*
X48666000Y-162961928D01*
X48666000Y-160888072D01*
X53300000Y-160888072D01*
X53424482Y-160875812D01*
X53544180Y-160839502D01*
X53654494Y-160780537D01*
X53751185Y-160701185D01*
X53830537Y-160604494D01*
X53889502Y-160494180D01*
X53925812Y-160374482D01*
X53938072Y-160250000D01*
X53938072Y-157250000D01*
X53925812Y-157125518D01*
X53889502Y-157005820D01*
X53830537Y-156895506D01*
X53751185Y-156798815D01*
X53654494Y-156719463D01*
X53544180Y-156660498D01*
X53424482Y-156624188D01*
X53300000Y-156611928D01*
X48666000Y-156611928D01*
X48666000Y-156225818D01*
X55239701Y-156225818D01*
X55239701Y-156702182D01*
X55332635Y-157169392D01*
X55514931Y-157609494D01*
X55779585Y-158005576D01*
X56116424Y-158342415D01*
X56512506Y-158607069D01*
X56952608Y-158789365D01*
X57419818Y-158882299D01*
X57896182Y-158882299D01*
X58363392Y-158789365D01*
X58803494Y-158607069D01*
X59199576Y-158342415D01*
X59536415Y-158005576D01*
X59801069Y-157609494D01*
X59983365Y-157169392D01*
X60076299Y-156702182D01*
X60076299Y-156225818D01*
X59983365Y-155758608D01*
X59801069Y-155318506D01*
X59536415Y-154922424D01*
X59199576Y-154585585D01*
X58803494Y-154320931D01*
X58363392Y-154138635D01*
X57896182Y-154045701D01*
X57419818Y-154045701D01*
X56952608Y-154138635D01*
X56512506Y-154320931D01*
X56116424Y-154585585D01*
X55779585Y-154922424D01*
X55514931Y-155318506D01*
X55332635Y-155758608D01*
X55239701Y-156225818D01*
X48666000Y-156225818D01*
X48666000Y-154538072D01*
X53300000Y-154538072D01*
X53424482Y-154525812D01*
X53544180Y-154489502D01*
X53654494Y-154430537D01*
X53751185Y-154351185D01*
X53830537Y-154254494D01*
X53889502Y-154144180D01*
X53925812Y-154024482D01*
X53938072Y-153900000D01*
X53938072Y-152211000D01*
X64953928Y-152211000D01*
X64966188Y-152335482D01*
X65002498Y-152455180D01*
X65061463Y-152565494D01*
X65140815Y-152662185D01*
X65237506Y-152741537D01*
X65347820Y-152800502D01*
X65467518Y-152836812D01*
X65592000Y-152849072D01*
X65881250Y-152846000D01*
X66040000Y-152687250D01*
X66040000Y-151638000D01*
X65115750Y-151638000D01*
X64957000Y-151796750D01*
X64953928Y-152211000D01*
X53938072Y-152211000D01*
X53938072Y-150900000D01*
X53925812Y-150775518D01*
X53889502Y-150655820D01*
X53830537Y-150545506D01*
X53751185Y-150448815D01*
X53654494Y-150369463D01*
X53544180Y-150310498D01*
X53424482Y-150274188D01*
X53300000Y-150261928D01*
X48666000Y-150261928D01*
X48666000Y-149060000D01*
X57743928Y-149060000D01*
X57743928Y-150660000D01*
X57756188Y-150784482D01*
X57792498Y-150904180D01*
X57851463Y-151014494D01*
X57930815Y-151111185D01*
X58027506Y-151190537D01*
X58137820Y-151249502D01*
X58257518Y-151285812D01*
X58382000Y-151298072D01*
X59982000Y-151298072D01*
X60106482Y-151285812D01*
X60226180Y-151249502D01*
X60336494Y-151190537D01*
X60433185Y-151111185D01*
X60512537Y-151014494D01*
X60571502Y-150904180D01*
X60607812Y-150784482D01*
X60620072Y-150660000D01*
X60620072Y-149671000D01*
X64953928Y-149671000D01*
X64966188Y-149795482D01*
X65002498Y-149915180D01*
X65061463Y-150025494D01*
X65140815Y-150122185D01*
X65237506Y-150201537D01*
X65311335Y-150241000D01*
X65237506Y-150280463D01*
X65140815Y-150359815D01*
X65061463Y-150456506D01*
X65002498Y-150566820D01*
X64966188Y-150686518D01*
X64953928Y-150811000D01*
X64957000Y-151225250D01*
X65115750Y-151384000D01*
X66040000Y-151384000D01*
X66040000Y-150334750D01*
X65946250Y-150241000D01*
X66040000Y-150147250D01*
X66040000Y-149098000D01*
X65115750Y-149098000D01*
X64957000Y-149256750D01*
X64953928Y-149671000D01*
X60620072Y-149671000D01*
X60620072Y-149060000D01*
X60607812Y-148935518D01*
X60571502Y-148815820D01*
X60512537Y-148705506D01*
X60433185Y-148608815D01*
X60336494Y-148529463D01*
X60226180Y-148470498D01*
X60106482Y-148434188D01*
X59982000Y-148421928D01*
X58382000Y-148421928D01*
X58257518Y-148434188D01*
X58137820Y-148470498D01*
X58027506Y-148529463D01*
X57930815Y-148608815D01*
X57851463Y-148705506D01*
X57792498Y-148815820D01*
X57756188Y-148935518D01*
X57743928Y-149060000D01*
X48666000Y-149060000D01*
X48666000Y-148187564D01*
X50514250Y-148185000D01*
X50673000Y-148026250D01*
X50673000Y-146177000D01*
X50927000Y-146177000D01*
X50927000Y-148026250D01*
X51085750Y-148185000D01*
X53300000Y-148188072D01*
X53424482Y-148175812D01*
X53544180Y-148139502D01*
X53654494Y-148080537D01*
X53751185Y-148001185D01*
X53830537Y-147904494D01*
X53889502Y-147794180D01*
X53925812Y-147674482D01*
X53938072Y-147550000D01*
X53937573Y-147352702D01*
X58368903Y-147352702D01*
X58440486Y-147596671D01*
X58695996Y-147717571D01*
X58970184Y-147786300D01*
X59252512Y-147800217D01*
X59532130Y-147758787D01*
X59798292Y-147663603D01*
X59923514Y-147596671D01*
X59995097Y-147352702D01*
X59182000Y-146539605D01*
X58368903Y-147352702D01*
X53937573Y-147352702D01*
X53935240Y-146430512D01*
X57741783Y-146430512D01*
X57783213Y-146710130D01*
X57878397Y-146976292D01*
X57945329Y-147101514D01*
X58189298Y-147173097D01*
X59002395Y-146360000D01*
X59361605Y-146360000D01*
X60174702Y-147173097D01*
X60318176Y-147131000D01*
X64953928Y-147131000D01*
X64966188Y-147255482D01*
X65002498Y-147375180D01*
X65061463Y-147485494D01*
X65140815Y-147582185D01*
X65237506Y-147661537D01*
X65311335Y-147701000D01*
X65237506Y-147740463D01*
X65140815Y-147819815D01*
X65061463Y-147916506D01*
X65002498Y-148026820D01*
X64966188Y-148146518D01*
X64953928Y-148271000D01*
X64957000Y-148685250D01*
X65115750Y-148844000D01*
X66040000Y-148844000D01*
X66040000Y-147794750D01*
X65946250Y-147701000D01*
X66040000Y-147607250D01*
X66040000Y-146558000D01*
X65115750Y-146558000D01*
X64957000Y-146716750D01*
X64953928Y-147131000D01*
X60318176Y-147131000D01*
X60418671Y-147101514D01*
X60539571Y-146846004D01*
X60608300Y-146571816D01*
X60622217Y-146289488D01*
X60580787Y-146009870D01*
X60485603Y-145743708D01*
X60478811Y-145731000D01*
X64953928Y-145731000D01*
X64957000Y-146145250D01*
X65115750Y-146304000D01*
X66040000Y-146304000D01*
X66040000Y-145254750D01*
X65881250Y-145096000D01*
X65592000Y-145092928D01*
X65467518Y-145105188D01*
X65347820Y-145141498D01*
X65237506Y-145200463D01*
X65140815Y-145279815D01*
X65061463Y-145376506D01*
X65002498Y-145486820D01*
X64966188Y-145606518D01*
X64953928Y-145731000D01*
X60478811Y-145731000D01*
X60418671Y-145618486D01*
X60174702Y-145546903D01*
X59361605Y-146360000D01*
X59002395Y-146360000D01*
X58189298Y-145546903D01*
X57945329Y-145618486D01*
X57824429Y-145873996D01*
X57755700Y-146148184D01*
X57741783Y-146430512D01*
X53935240Y-146430512D01*
X53935000Y-146335750D01*
X53776250Y-146177000D01*
X50927000Y-146177000D01*
X50673000Y-146177000D01*
X50653000Y-146177000D01*
X50653000Y-145923000D01*
X50673000Y-145923000D01*
X50673000Y-145903000D01*
X50927000Y-145903000D01*
X50927000Y-145923000D01*
X53776250Y-145923000D01*
X53935000Y-145764250D01*
X53936004Y-145367298D01*
X58368903Y-145367298D01*
X59182000Y-146180395D01*
X59995097Y-145367298D01*
X59923514Y-145123329D01*
X59668004Y-145002429D01*
X59393816Y-144933700D01*
X59111488Y-144919783D01*
X58831870Y-144961213D01*
X58565708Y-145056397D01*
X58440486Y-145123329D01*
X58368903Y-145367298D01*
X53936004Y-145367298D01*
X53938072Y-144550000D01*
X53925812Y-144425518D01*
X53889502Y-144305820D01*
X53830537Y-144195506D01*
X53809605Y-144170000D01*
X88105723Y-144170000D01*
X88157197Y-144175047D01*
G36*
X75767992Y-152518745D02*
G01*
X75750928Y-152691999D01*
X75750928Y-153342001D01*
X75767992Y-153515255D01*
X75818528Y-153681851D01*
X75900595Y-153835387D01*
X76011038Y-153969962D01*
X76098816Y-154042000D01*
X76011038Y-154114038D01*
X75900595Y-154248613D01*
X75818528Y-154402149D01*
X75767992Y-154568745D01*
X75750928Y-154741999D01*
X75750928Y-155392001D01*
X75767992Y-155565255D01*
X75818528Y-155731851D01*
X75900595Y-155885387D01*
X76011038Y-156019962D01*
X76145613Y-156130405D01*
X76299149Y-156212472D01*
X76465745Y-156263008D01*
X76638999Y-156280072D01*
X77539001Y-156280072D01*
X77712255Y-156263008D01*
X77878851Y-156212472D01*
X78032387Y-156130405D01*
X78166962Y-156019962D01*
X78219454Y-155956000D01*
X79514765Y-155956000D01*
X80137000Y-156578236D01*
X80137001Y-161937928D01*
X80073500Y-161937928D01*
X79949018Y-161950188D01*
X79829320Y-161986498D01*
X79719006Y-162045463D01*
X79622315Y-162124815D01*
X79542963Y-162221506D01*
X79483998Y-162331820D01*
X79447688Y-162451518D01*
X79435428Y-162576000D01*
X79435428Y-164233020D01*
X73300306Y-164233020D01*
X73400661Y-164150661D01*
X73592481Y-163916927D01*
X73735017Y-163650261D01*
X73822790Y-163360913D01*
X73845000Y-163135408D01*
X73845000Y-161784592D01*
X73822790Y-161559087D01*
X73735017Y-161269739D01*
X73592481Y-161003073D01*
X73400661Y-160769339D01*
X73166926Y-160577519D01*
X72900260Y-160434983D01*
X72610912Y-160347210D01*
X72310000Y-160317573D01*
X72009087Y-160347210D01*
X71719739Y-160434983D01*
X71453073Y-160577519D01*
X71219339Y-160769339D01*
X71193010Y-160801421D01*
X71193010Y-158031394D01*
X71298698Y-158102012D01*
X71687244Y-158262953D01*
X72099721Y-158345000D01*
X72520279Y-158345000D01*
X72932756Y-158262953D01*
X73321302Y-158102012D01*
X73670983Y-157868363D01*
X73968363Y-157570983D01*
X74202012Y-157221302D01*
X74362953Y-156832756D01*
X74445000Y-156420279D01*
X74445000Y-155999721D01*
X74362953Y-155587244D01*
X74202012Y-155198698D01*
X73968363Y-154849017D01*
X73670983Y-154551637D01*
X73321302Y-154317988D01*
X72932756Y-154157047D01*
X72520279Y-154075000D01*
X72099721Y-154075000D01*
X71687244Y-154157047D01*
X71298698Y-154317988D01*
X71193010Y-154388606D01*
X71193010Y-154204501D01*
X72996062Y-152401450D01*
X73024999Y-152404300D01*
X73068659Y-152400000D01*
X75804013Y-152400000D01*
X75767992Y-152518745D01*
G37*
X75767992Y-152518745D02*
X75750928Y-152691999D01*
X75750928Y-153342001D01*
X75767992Y-153515255D01*
X75818528Y-153681851D01*
X75900595Y-153835387D01*
X76011038Y-153969962D01*
X76098816Y-154042000D01*
X76011038Y-154114038D01*
X75900595Y-154248613D01*
X75818528Y-154402149D01*
X75767992Y-154568745D01*
X75750928Y-154741999D01*
X75750928Y-155392001D01*
X75767992Y-155565255D01*
X75818528Y-155731851D01*
X75900595Y-155885387D01*
X76011038Y-156019962D01*
X76145613Y-156130405D01*
X76299149Y-156212472D01*
X76465745Y-156263008D01*
X76638999Y-156280072D01*
X77539001Y-156280072D01*
X77712255Y-156263008D01*
X77878851Y-156212472D01*
X78032387Y-156130405D01*
X78166962Y-156019962D01*
X78219454Y-155956000D01*
X79514765Y-155956000D01*
X80137000Y-156578236D01*
X80137001Y-161937928D01*
X80073500Y-161937928D01*
X79949018Y-161950188D01*
X79829320Y-161986498D01*
X79719006Y-162045463D01*
X79622315Y-162124815D01*
X79542963Y-162221506D01*
X79483998Y-162331820D01*
X79447688Y-162451518D01*
X79435428Y-162576000D01*
X79435428Y-164233020D01*
X73300306Y-164233020D01*
X73400661Y-164150661D01*
X73592481Y-163916927D01*
X73735017Y-163650261D01*
X73822790Y-163360913D01*
X73845000Y-163135408D01*
X73845000Y-161784592D01*
X73822790Y-161559087D01*
X73735017Y-161269739D01*
X73592481Y-161003073D01*
X73400661Y-160769339D01*
X73166926Y-160577519D01*
X72900260Y-160434983D01*
X72610912Y-160347210D01*
X72310000Y-160317573D01*
X72009087Y-160347210D01*
X71719739Y-160434983D01*
X71453073Y-160577519D01*
X71219339Y-160769339D01*
X71193010Y-160801421D01*
X71193010Y-158031394D01*
X71298698Y-158102012D01*
X71687244Y-158262953D01*
X72099721Y-158345000D01*
X72520279Y-158345000D01*
X72932756Y-158262953D01*
X73321302Y-158102012D01*
X73670983Y-157868363D01*
X73968363Y-157570983D01*
X74202012Y-157221302D01*
X74362953Y-156832756D01*
X74445000Y-156420279D01*
X74445000Y-155999721D01*
X74362953Y-155587244D01*
X74202012Y-155198698D01*
X73968363Y-154849017D01*
X73670983Y-154551637D01*
X73321302Y-154317988D01*
X72932756Y-154157047D01*
X72520279Y-154075000D01*
X72099721Y-154075000D01*
X71687244Y-154157047D01*
X71298698Y-154317988D01*
X71193010Y-154388606D01*
X71193010Y-154204501D01*
X72996062Y-152401450D01*
X73024999Y-152404300D01*
X73068659Y-152400000D01*
X75804013Y-152400000D01*
X75767992Y-152518745D01*
G36*
X65257047Y-156832756D02*
G01*
X65417988Y-157221302D01*
X65651637Y-157570983D01*
X65949017Y-157868363D01*
X66298698Y-158102012D01*
X66687244Y-158262953D01*
X67099721Y-158345000D01*
X67520279Y-158345000D01*
X67932756Y-158262953D01*
X68321302Y-158102012D01*
X68670983Y-157868363D01*
X68707001Y-157832345D01*
X68707001Y-158198324D01*
X68707000Y-158198334D01*
X68707001Y-159397764D01*
X68487775Y-159616990D01*
X64865072Y-159616990D01*
X64865072Y-159318000D01*
X64852812Y-159193518D01*
X64816502Y-159073820D01*
X64771854Y-158990291D01*
X64831962Y-158940962D01*
X64942405Y-158806387D01*
X65024472Y-158652851D01*
X65075008Y-158486255D01*
X65092072Y-158313001D01*
X65092072Y-157662999D01*
X65075008Y-157489745D01*
X65024472Y-157323149D01*
X64942405Y-157169613D01*
X64831962Y-157035038D01*
X64744184Y-156963000D01*
X64831962Y-156890962D01*
X64884454Y-156827000D01*
X65255902Y-156827000D01*
X65257047Y-156832756D01*
G37*
X65257047Y-156832756D02*
X65417988Y-157221302D01*
X65651637Y-157570983D01*
X65949017Y-157868363D01*
X66298698Y-158102012D01*
X66687244Y-158262953D01*
X67099721Y-158345000D01*
X67520279Y-158345000D01*
X67932756Y-158262953D01*
X68321302Y-158102012D01*
X68670983Y-157868363D01*
X68707001Y-157832345D01*
X68707001Y-158198324D01*
X68707000Y-158198334D01*
X68707001Y-159397764D01*
X68487775Y-159616990D01*
X64865072Y-159616990D01*
X64865072Y-159318000D01*
X64852812Y-159193518D01*
X64816502Y-159073820D01*
X64771854Y-158990291D01*
X64831962Y-158940962D01*
X64942405Y-158806387D01*
X65024472Y-158652851D01*
X65075008Y-158486255D01*
X65092072Y-158313001D01*
X65092072Y-157662999D01*
X65075008Y-157489745D01*
X65024472Y-157323149D01*
X64942405Y-157169613D01*
X64831962Y-157035038D01*
X64744184Y-156963000D01*
X64831962Y-156890962D01*
X64884454Y-156827000D01*
X65255902Y-156827000D01*
X65257047Y-156832756D01*
%TD*%
M02*
