%TF.GenerationSoftware,KiCad,Pcbnew,(5.1.6)-1*%
%TF.CreationDate,2021-04-07T17:53:43+02:00*%
%TF.ProjectId,led_dimmer,6c65645f-6469-46d6-9d65-722e6b696361,rev?*%
%TF.SameCoordinates,Original*%
%TF.FileFunction,Legend,Top*%
%TF.FilePolarity,Positive*%
%FSLAX46Y46*%
G04 Gerber Fmt 4.6, Leading zero omitted, Abs format (unit mm)*
G04 Created by KiCad (PCBNEW (5.1.6)-1) date 2021-04-07 17:53:43*
%MOMM*%
%LPD*%
G01*
G04 APERTURE LIST*
%ADD10C,0.120000*%
%ADD11C,0.150000*%
G04 APERTURE END LIST*
D10*
X66260571Y-165959285D02*
X66260571Y-166495000D01*
X66224857Y-166602142D01*
X66153428Y-166673571D01*
X66046285Y-166709285D01*
X65974857Y-166709285D01*
X66974857Y-166709285D02*
X66617714Y-166709285D01*
X66617714Y-165959285D01*
X67653428Y-166637857D02*
X67617714Y-166673571D01*
X67510571Y-166709285D01*
X67439142Y-166709285D01*
X67332000Y-166673571D01*
X67260571Y-166602142D01*
X67224857Y-166530714D01*
X67189142Y-166387857D01*
X67189142Y-166280714D01*
X67224857Y-166137857D01*
X67260571Y-166066428D01*
X67332000Y-165995000D01*
X67439142Y-165959285D01*
X67510571Y-165959285D01*
X67617714Y-165995000D01*
X67653428Y-166030714D01*
X68189142Y-165959285D02*
X68189142Y-166495000D01*
X68153428Y-166602142D01*
X68082000Y-166673571D01*
X67974857Y-166709285D01*
X67903428Y-166709285D01*
X68903428Y-166709285D02*
X68546285Y-166709285D01*
X68546285Y-165959285D01*
X69582000Y-166637857D02*
X69546285Y-166673571D01*
X69439142Y-166709285D01*
X69367714Y-166709285D01*
X69260571Y-166673571D01*
X69189142Y-166602142D01*
X69153428Y-166530714D01*
X69117714Y-166387857D01*
X69117714Y-166280714D01*
X69153428Y-166137857D01*
X69189142Y-166066428D01*
X69260571Y-165995000D01*
X69367714Y-165959285D01*
X69439142Y-165959285D01*
X69546285Y-165995000D01*
X69582000Y-166030714D01*
X70117714Y-165959285D02*
X70117714Y-166495000D01*
X70082000Y-166602142D01*
X70010571Y-166673571D01*
X69903428Y-166709285D01*
X69832000Y-166709285D01*
X70832000Y-166709285D02*
X70474857Y-166709285D01*
X70474857Y-165959285D01*
X71510571Y-166637857D02*
X71474857Y-166673571D01*
X71367714Y-166709285D01*
X71296285Y-166709285D01*
X71189142Y-166673571D01*
X71117714Y-166602142D01*
X71082000Y-166530714D01*
X71046285Y-166387857D01*
X71046285Y-166280714D01*
X71082000Y-166137857D01*
X71117714Y-166066428D01*
X71189142Y-165995000D01*
X71296285Y-165959285D01*
X71367714Y-165959285D01*
X71474857Y-165995000D01*
X71510571Y-166030714D01*
X72046285Y-165959285D02*
X72046285Y-166495000D01*
X72010571Y-166602142D01*
X71939142Y-166673571D01*
X71832000Y-166709285D01*
X71760571Y-166709285D01*
X72760571Y-166709285D02*
X72403428Y-166709285D01*
X72403428Y-165959285D01*
X73439142Y-166637857D02*
X73403428Y-166673571D01*
X73296285Y-166709285D01*
X73224857Y-166709285D01*
X73117714Y-166673571D01*
X73046285Y-166602142D01*
X73010571Y-166530714D01*
X72974857Y-166387857D01*
X72974857Y-166280714D01*
X73010571Y-166137857D01*
X73046285Y-166066428D01*
X73117714Y-165995000D01*
X73224857Y-165959285D01*
X73296285Y-165959285D01*
X73403428Y-165995000D01*
X73439142Y-166030714D01*
D11*
X77748500Y-164873142D02*
X77319928Y-164873142D01*
X77277071Y-165301714D01*
X77319928Y-165258857D01*
X77405642Y-165216000D01*
X77619928Y-165216000D01*
X77705642Y-165258857D01*
X77748500Y-165301714D01*
X77791357Y-165387428D01*
X77791357Y-165601714D01*
X77748500Y-165687428D01*
X77705642Y-165730285D01*
X77619928Y-165773142D01*
X77405642Y-165773142D01*
X77319928Y-165730285D01*
X77277071Y-165687428D01*
X78605642Y-164873142D02*
X78177071Y-164873142D01*
X78134214Y-165301714D01*
X78177071Y-165258857D01*
X78262785Y-165216000D01*
X78477071Y-165216000D01*
X78562785Y-165258857D01*
X78605642Y-165301714D01*
X78648500Y-165387428D01*
X78648500Y-165601714D01*
X78605642Y-165687428D01*
X78562785Y-165730285D01*
X78477071Y-165773142D01*
X78262785Y-165773142D01*
X78177071Y-165730285D01*
X78134214Y-165687428D01*
X79462785Y-164873142D02*
X79034214Y-164873142D01*
X78991357Y-165301714D01*
X79034214Y-165258857D01*
X79119928Y-165216000D01*
X79334214Y-165216000D01*
X79419928Y-165258857D01*
X79462785Y-165301714D01*
X79505642Y-165387428D01*
X79505642Y-165601714D01*
X79462785Y-165687428D01*
X79419928Y-165730285D01*
X79334214Y-165773142D01*
X79119928Y-165773142D01*
X79034214Y-165730285D01*
X78991357Y-165687428D01*
X81005642Y-165773142D02*
X80577071Y-165773142D01*
X80577071Y-164873142D01*
X81305642Y-165301714D02*
X81605642Y-165301714D01*
X81734214Y-165773142D02*
X81305642Y-165773142D01*
X81305642Y-164873142D01*
X81734214Y-164873142D01*
X82119928Y-165773142D02*
X82119928Y-164873142D01*
X82334214Y-164873142D01*
X82462785Y-164916000D01*
X82548500Y-165001714D01*
X82591357Y-165087428D01*
X82634214Y-165258857D01*
X82634214Y-165387428D01*
X82591357Y-165558857D01*
X82548500Y-165644571D01*
X82462785Y-165730285D01*
X82334214Y-165773142D01*
X82119928Y-165773142D01*
X83705642Y-165773142D02*
X83705642Y-164873142D01*
X83919928Y-164873142D01*
X84048500Y-164916000D01*
X84134214Y-165001714D01*
X84177071Y-165087428D01*
X84219928Y-165258857D01*
X84219928Y-165387428D01*
X84177071Y-165558857D01*
X84134214Y-165644571D01*
X84048500Y-165730285D01*
X83919928Y-165773142D01*
X83705642Y-165773142D01*
X84605642Y-165773142D02*
X84605642Y-165173142D01*
X84605642Y-164873142D02*
X84562785Y-164916000D01*
X84605642Y-164958857D01*
X84648500Y-164916000D01*
X84605642Y-164873142D01*
X84605642Y-164958857D01*
X85034214Y-165773142D02*
X85034214Y-165173142D01*
X85034214Y-165258857D02*
X85077071Y-165216000D01*
X85162785Y-165173142D01*
X85291357Y-165173142D01*
X85377071Y-165216000D01*
X85419928Y-165301714D01*
X85419928Y-165773142D01*
X85419928Y-165301714D02*
X85462785Y-165216000D01*
X85548500Y-165173142D01*
X85677071Y-165173142D01*
X85762785Y-165216000D01*
X85805642Y-165301714D01*
X85805642Y-165773142D01*
X86234214Y-165773142D02*
X86234214Y-165173142D01*
X86234214Y-165258857D02*
X86277071Y-165216000D01*
X86362785Y-165173142D01*
X86491357Y-165173142D01*
X86577071Y-165216000D01*
X86619928Y-165301714D01*
X86619928Y-165773142D01*
X86619928Y-165301714D02*
X86662785Y-165216000D01*
X86748500Y-165173142D01*
X86877071Y-165173142D01*
X86962785Y-165216000D01*
X87005642Y-165301714D01*
X87005642Y-165773142D01*
X87777071Y-165730285D02*
X87691357Y-165773142D01*
X87519928Y-165773142D01*
X87434214Y-165730285D01*
X87391357Y-165644571D01*
X87391357Y-165301714D01*
X87434214Y-165216000D01*
X87519928Y-165173142D01*
X87691357Y-165173142D01*
X87777071Y-165216000D01*
X87819928Y-165301714D01*
X87819928Y-165387428D01*
X87391357Y-165473142D01*
X88205642Y-165773142D02*
X88205642Y-165173142D01*
X88205642Y-165344571D02*
X88248500Y-165258857D01*
X88291357Y-165216000D01*
X88377071Y-165173142D01*
X88462785Y-165173142D01*
X75777071Y-166373142D02*
X76291357Y-166373142D01*
X76034214Y-167273142D02*
X76034214Y-166373142D01*
X76591357Y-167273142D02*
X76591357Y-166673142D01*
X76591357Y-166373142D02*
X76548500Y-166416000D01*
X76591357Y-166458857D01*
X76634214Y-166416000D01*
X76591357Y-166373142D01*
X76591357Y-166458857D01*
X77019928Y-167273142D02*
X77019928Y-166673142D01*
X77019928Y-166758857D02*
X77062785Y-166716000D01*
X77148500Y-166673142D01*
X77277071Y-166673142D01*
X77362785Y-166716000D01*
X77405642Y-166801714D01*
X77405642Y-167273142D01*
X77405642Y-166801714D02*
X77448500Y-166716000D01*
X77534214Y-166673142D01*
X77662785Y-166673142D01*
X77748500Y-166716000D01*
X77791357Y-166801714D01*
X77791357Y-167273142D01*
X79377071Y-166416000D02*
X79291357Y-166373142D01*
X79162785Y-166373142D01*
X79034214Y-166416000D01*
X78948500Y-166501714D01*
X78905642Y-166587428D01*
X78862785Y-166758857D01*
X78862785Y-166887428D01*
X78905642Y-167058857D01*
X78948500Y-167144571D01*
X79034214Y-167230285D01*
X79162785Y-167273142D01*
X79248500Y-167273142D01*
X79377071Y-167230285D01*
X79419928Y-167187428D01*
X79419928Y-166887428D01*
X79248500Y-166887428D01*
X79934214Y-167273142D02*
X79848500Y-167230285D01*
X79805642Y-167187428D01*
X79762785Y-167101714D01*
X79762785Y-166844571D01*
X79805642Y-166758857D01*
X79848500Y-166716000D01*
X79934214Y-166673142D01*
X80062785Y-166673142D01*
X80148500Y-166716000D01*
X80191357Y-166758857D01*
X80234214Y-166844571D01*
X80234214Y-167101714D01*
X80191357Y-167187428D01*
X80148500Y-167230285D01*
X80062785Y-167273142D01*
X79934214Y-167273142D01*
X80748500Y-167273142D02*
X80662785Y-167230285D01*
X80619928Y-167144571D01*
X80619928Y-166373142D01*
X81219928Y-167273142D02*
X81134214Y-167230285D01*
X81091357Y-167144571D01*
X81091357Y-166373142D01*
X81605642Y-167230285D02*
X81605642Y-167273142D01*
X81562785Y-167358857D01*
X81519928Y-167401714D01*
X82848500Y-166373142D02*
X82934214Y-166373142D01*
X83019928Y-166416000D01*
X83062785Y-166458857D01*
X83105642Y-166544571D01*
X83148500Y-166716000D01*
X83148500Y-166930285D01*
X83105642Y-167101714D01*
X83062785Y-167187428D01*
X83019928Y-167230285D01*
X82934214Y-167273142D01*
X82848500Y-167273142D01*
X82762785Y-167230285D01*
X82719928Y-167187428D01*
X82677071Y-167101714D01*
X82634214Y-166930285D01*
X82634214Y-166716000D01*
X82677071Y-166544571D01*
X82719928Y-166458857D01*
X82762785Y-166416000D01*
X82848500Y-166373142D01*
X83448500Y-166373142D02*
X84005642Y-166373142D01*
X83705642Y-166716000D01*
X83834214Y-166716000D01*
X83919928Y-166758857D01*
X83962785Y-166801714D01*
X84005642Y-166887428D01*
X84005642Y-167101714D01*
X83962785Y-167187428D01*
X83919928Y-167230285D01*
X83834214Y-167273142D01*
X83577071Y-167273142D01*
X83491357Y-167230285D01*
X83448500Y-167187428D01*
X85034214Y-166330285D02*
X84262785Y-167487428D01*
X85291357Y-166458857D02*
X85334214Y-166416000D01*
X85419928Y-166373142D01*
X85634214Y-166373142D01*
X85719928Y-166416000D01*
X85762785Y-166458857D01*
X85805642Y-166544571D01*
X85805642Y-166630285D01*
X85762785Y-166758857D01*
X85248500Y-167273142D01*
X85805642Y-167273142D01*
X86362785Y-166373142D02*
X86448500Y-166373142D01*
X86534214Y-166416000D01*
X86577071Y-166458857D01*
X86619928Y-166544571D01*
X86662785Y-166716000D01*
X86662785Y-166930285D01*
X86619928Y-167101714D01*
X86577071Y-167187428D01*
X86534214Y-167230285D01*
X86448500Y-167273142D01*
X86362785Y-167273142D01*
X86277071Y-167230285D01*
X86234214Y-167187428D01*
X86191357Y-167101714D01*
X86148500Y-166930285D01*
X86148500Y-166716000D01*
X86191357Y-166544571D01*
X86234214Y-166458857D01*
X86277071Y-166416000D01*
X86362785Y-166373142D01*
X87005642Y-166458857D02*
X87048500Y-166416000D01*
X87134214Y-166373142D01*
X87348500Y-166373142D01*
X87434214Y-166416000D01*
X87477071Y-166458857D01*
X87519928Y-166544571D01*
X87519928Y-166630285D01*
X87477071Y-166758857D01*
X86962785Y-167273142D01*
X87519928Y-167273142D01*
X88377071Y-167273142D02*
X87862785Y-167273142D01*
X88119928Y-167273142D02*
X88119928Y-166373142D01*
X88034214Y-166501714D01*
X87948500Y-166587428D01*
X87862785Y-166630285D01*
D10*
%TO.C,U1*%
X73279000Y-145776000D02*
X71329000Y-145776000D01*
X73279000Y-145776000D02*
X75229000Y-145776000D01*
X73279000Y-150896000D02*
X71329000Y-150896000D01*
X73279000Y-150896000D02*
X76729000Y-150896000D01*
%TO.C,C1*%
X63302000Y-148110000D02*
G75*
G03*
X63302000Y-148110000I-4120000J0D01*
G01*
X55102000Y-148110000D02*
X63262000Y-148110000D01*
X55102000Y-148070000D02*
X63262000Y-148070000D01*
X55102000Y-148030000D02*
X63262000Y-148030000D01*
X55103000Y-147990000D02*
X63261000Y-147990000D01*
X55105000Y-147950000D02*
X63259000Y-147950000D01*
X55106000Y-147910000D02*
X63258000Y-147910000D01*
X55108000Y-147870000D02*
X63256000Y-147870000D01*
X55111000Y-147830000D02*
X63253000Y-147830000D01*
X55114000Y-147790000D02*
X63250000Y-147790000D01*
X55117000Y-147750000D02*
X63247000Y-147750000D01*
X55121000Y-147710000D02*
X63243000Y-147710000D01*
X55125000Y-147670000D02*
X63239000Y-147670000D01*
X55130000Y-147630000D02*
X63234000Y-147630000D01*
X55134000Y-147590000D02*
X63230000Y-147590000D01*
X55140000Y-147550000D02*
X63224000Y-147550000D01*
X55145000Y-147510000D02*
X63219000Y-147510000D01*
X55152000Y-147470000D02*
X63212000Y-147470000D01*
X55158000Y-147430000D02*
X63206000Y-147430000D01*
X55165000Y-147389000D02*
X58142000Y-147389000D01*
X60222000Y-147389000D02*
X63199000Y-147389000D01*
X55172000Y-147349000D02*
X58142000Y-147349000D01*
X60222000Y-147349000D02*
X63192000Y-147349000D01*
X55180000Y-147309000D02*
X58142000Y-147309000D01*
X60222000Y-147309000D02*
X63184000Y-147309000D01*
X55188000Y-147269000D02*
X58142000Y-147269000D01*
X60222000Y-147269000D02*
X63176000Y-147269000D01*
X55197000Y-147229000D02*
X58142000Y-147229000D01*
X60222000Y-147229000D02*
X63167000Y-147229000D01*
X55206000Y-147189000D02*
X58142000Y-147189000D01*
X60222000Y-147189000D02*
X63158000Y-147189000D01*
X55215000Y-147149000D02*
X58142000Y-147149000D01*
X60222000Y-147149000D02*
X63149000Y-147149000D01*
X55225000Y-147109000D02*
X58142000Y-147109000D01*
X60222000Y-147109000D02*
X63139000Y-147109000D01*
X55235000Y-147069000D02*
X58142000Y-147069000D01*
X60222000Y-147069000D02*
X63129000Y-147069000D01*
X55246000Y-147029000D02*
X58142000Y-147029000D01*
X60222000Y-147029000D02*
X63118000Y-147029000D01*
X55257000Y-146989000D02*
X58142000Y-146989000D01*
X60222000Y-146989000D02*
X63107000Y-146989000D01*
X55268000Y-146949000D02*
X58142000Y-146949000D01*
X60222000Y-146949000D02*
X63096000Y-146949000D01*
X55280000Y-146909000D02*
X58142000Y-146909000D01*
X60222000Y-146909000D02*
X63084000Y-146909000D01*
X55293000Y-146869000D02*
X58142000Y-146869000D01*
X60222000Y-146869000D02*
X63071000Y-146869000D01*
X55305000Y-146829000D02*
X58142000Y-146829000D01*
X60222000Y-146829000D02*
X63059000Y-146829000D01*
X55319000Y-146789000D02*
X58142000Y-146789000D01*
X60222000Y-146789000D02*
X63045000Y-146789000D01*
X55332000Y-146749000D02*
X58142000Y-146749000D01*
X60222000Y-146749000D02*
X63032000Y-146749000D01*
X55347000Y-146709000D02*
X58142000Y-146709000D01*
X60222000Y-146709000D02*
X63017000Y-146709000D01*
X55361000Y-146669000D02*
X58142000Y-146669000D01*
X60222000Y-146669000D02*
X63003000Y-146669000D01*
X55377000Y-146629000D02*
X58142000Y-146629000D01*
X60222000Y-146629000D02*
X62987000Y-146629000D01*
X55392000Y-146589000D02*
X58142000Y-146589000D01*
X60222000Y-146589000D02*
X62972000Y-146589000D01*
X55408000Y-146549000D02*
X58142000Y-146549000D01*
X60222000Y-146549000D02*
X62956000Y-146549000D01*
X55425000Y-146509000D02*
X58142000Y-146509000D01*
X60222000Y-146509000D02*
X62939000Y-146509000D01*
X55442000Y-146469000D02*
X58142000Y-146469000D01*
X60222000Y-146469000D02*
X62922000Y-146469000D01*
X55460000Y-146429000D02*
X58142000Y-146429000D01*
X60222000Y-146429000D02*
X62904000Y-146429000D01*
X55478000Y-146389000D02*
X58142000Y-146389000D01*
X60222000Y-146389000D02*
X62886000Y-146389000D01*
X55496000Y-146349000D02*
X58142000Y-146349000D01*
X60222000Y-146349000D02*
X62868000Y-146349000D01*
X55516000Y-146309000D02*
X58142000Y-146309000D01*
X60222000Y-146309000D02*
X62848000Y-146309000D01*
X55535000Y-146269000D02*
X58142000Y-146269000D01*
X60222000Y-146269000D02*
X62829000Y-146269000D01*
X55555000Y-146229000D02*
X58142000Y-146229000D01*
X60222000Y-146229000D02*
X62809000Y-146229000D01*
X55576000Y-146189000D02*
X58142000Y-146189000D01*
X60222000Y-146189000D02*
X62788000Y-146189000D01*
X55598000Y-146149000D02*
X58142000Y-146149000D01*
X60222000Y-146149000D02*
X62766000Y-146149000D01*
X55620000Y-146109000D02*
X58142000Y-146109000D01*
X60222000Y-146109000D02*
X62744000Y-146109000D01*
X55642000Y-146069000D02*
X58142000Y-146069000D01*
X60222000Y-146069000D02*
X62722000Y-146069000D01*
X55665000Y-146029000D02*
X58142000Y-146029000D01*
X60222000Y-146029000D02*
X62699000Y-146029000D01*
X55689000Y-145989000D02*
X58142000Y-145989000D01*
X60222000Y-145989000D02*
X62675000Y-145989000D01*
X55713000Y-145949000D02*
X58142000Y-145949000D01*
X60222000Y-145949000D02*
X62651000Y-145949000D01*
X55738000Y-145909000D02*
X58142000Y-145909000D01*
X60222000Y-145909000D02*
X62626000Y-145909000D01*
X55764000Y-145869000D02*
X58142000Y-145869000D01*
X60222000Y-145869000D02*
X62600000Y-145869000D01*
X55790000Y-145829000D02*
X58142000Y-145829000D01*
X60222000Y-145829000D02*
X62574000Y-145829000D01*
X55817000Y-145789000D02*
X58142000Y-145789000D01*
X60222000Y-145789000D02*
X62547000Y-145789000D01*
X55844000Y-145749000D02*
X58142000Y-145749000D01*
X60222000Y-145749000D02*
X62520000Y-145749000D01*
X55873000Y-145709000D02*
X58142000Y-145709000D01*
X60222000Y-145709000D02*
X62491000Y-145709000D01*
X55902000Y-145669000D02*
X58142000Y-145669000D01*
X60222000Y-145669000D02*
X62462000Y-145669000D01*
X55932000Y-145629000D02*
X58142000Y-145629000D01*
X60222000Y-145629000D02*
X62432000Y-145629000D01*
X55962000Y-145589000D02*
X58142000Y-145589000D01*
X60222000Y-145589000D02*
X62402000Y-145589000D01*
X55993000Y-145549000D02*
X58142000Y-145549000D01*
X60222000Y-145549000D02*
X62371000Y-145549000D01*
X56026000Y-145509000D02*
X58142000Y-145509000D01*
X60222000Y-145509000D02*
X62338000Y-145509000D01*
X56058000Y-145469000D02*
X58142000Y-145469000D01*
X60222000Y-145469000D02*
X62306000Y-145469000D01*
X56092000Y-145429000D02*
X58142000Y-145429000D01*
X60222000Y-145429000D02*
X62272000Y-145429000D01*
X56127000Y-145389000D02*
X58142000Y-145389000D01*
X60222000Y-145389000D02*
X62237000Y-145389000D01*
X56163000Y-145349000D02*
X58142000Y-145349000D01*
X60222000Y-145349000D02*
X62201000Y-145349000D01*
X56199000Y-145309000D02*
X62165000Y-145309000D01*
X56237000Y-145269000D02*
X62127000Y-145269000D01*
X56275000Y-145229000D02*
X62089000Y-145229000D01*
X56315000Y-145189000D02*
X62049000Y-145189000D01*
X56356000Y-145149000D02*
X62008000Y-145149000D01*
X56398000Y-145109000D02*
X61966000Y-145109000D01*
X56441000Y-145069000D02*
X61923000Y-145069000D01*
X56485000Y-145029000D02*
X61879000Y-145029000D01*
X56531000Y-144989000D02*
X61833000Y-144989000D01*
X56578000Y-144949000D02*
X61786000Y-144949000D01*
X56626000Y-144909000D02*
X61738000Y-144909000D01*
X56677000Y-144869000D02*
X61687000Y-144869000D01*
X56728000Y-144829000D02*
X61636000Y-144829000D01*
X56782000Y-144789000D02*
X61582000Y-144789000D01*
X56837000Y-144749000D02*
X61527000Y-144749000D01*
X56895000Y-144709000D02*
X61469000Y-144709000D01*
X56954000Y-144669000D02*
X61410000Y-144669000D01*
X57016000Y-144629000D02*
X61348000Y-144629000D01*
X57080000Y-144589000D02*
X61284000Y-144589000D01*
X57148000Y-144549000D02*
X61216000Y-144549000D01*
X57218000Y-144509000D02*
X61146000Y-144509000D01*
X57292000Y-144469000D02*
X61072000Y-144469000D01*
X57369000Y-144429000D02*
X60995000Y-144429000D01*
X57451000Y-144389000D02*
X60913000Y-144389000D01*
X57537000Y-144349000D02*
X60827000Y-144349000D01*
X57630000Y-144309000D02*
X60734000Y-144309000D01*
X57729000Y-144269000D02*
X60635000Y-144269000D01*
X57836000Y-144229000D02*
X60528000Y-144229000D01*
X57953000Y-144189000D02*
X60411000Y-144189000D01*
X58084000Y-144149000D02*
X60280000Y-144149000D01*
X58234000Y-144109000D02*
X60130000Y-144109000D01*
X58414000Y-144069000D02*
X59950000Y-144069000D01*
X58649000Y-144029000D02*
X59715000Y-144029000D01*
X56867000Y-152519698D02*
X56867000Y-151719698D01*
X56467000Y-152119698D02*
X57267000Y-152119698D01*
%TO.C,C2*%
X67453252Y-152221000D02*
X66930748Y-152221000D01*
X67453252Y-150801000D02*
X66930748Y-150801000D01*
%TO.C,C3*%
X67453252Y-145721000D02*
X66930748Y-145721000D01*
X67453252Y-147141000D02*
X66930748Y-147141000D01*
%TO.C,C4*%
X67453252Y-149681000D02*
X66930748Y-149681000D01*
X67453252Y-148261000D02*
X66930748Y-148261000D01*
%TO.C,D1*%
X60087000Y-163668000D02*
X60087000Y-159768000D01*
X62087000Y-163668000D02*
X62087000Y-159768000D01*
X60087000Y-163668000D02*
X62087000Y-163668000D01*
%TO.C,D2*%
X64627000Y-159168000D02*
X62627000Y-159168000D01*
X62627000Y-159168000D02*
X62627000Y-163068000D01*
X64627000Y-159168000D02*
X64627000Y-163068000D01*
%TO.C,Q1*%
X78446000Y-159886000D02*
X88686000Y-159886000D01*
X78446000Y-143996000D02*
X88686000Y-143996000D01*
X78446000Y-143996000D02*
X78446000Y-159886000D01*
X88686000Y-143996000D02*
X88686000Y-159886000D01*
X81026000Y-159886000D02*
X81026000Y-162426000D01*
X83566000Y-159886000D02*
X83566000Y-162426000D01*
X86106000Y-159886000D02*
X86106000Y-162426000D01*
%TO.C,R1*%
X77799000Y-154303252D02*
X77799000Y-153780748D01*
X76379000Y-154303252D02*
X76379000Y-153780748D01*
%TO.C,R2*%
X64464000Y-156701748D02*
X64464000Y-157224252D01*
X63044000Y-156701748D02*
X63044000Y-157224252D01*
%TO.C,U2*%
X74560000Y-154360000D02*
X65060000Y-154360000D01*
X65060000Y-154360000D02*
X65060000Y-167460000D01*
X65060000Y-167460000D02*
X74560000Y-167460000D01*
X74560000Y-167460000D02*
X74560000Y-154360000D01*
%TO.C,U1*%
D11*
X72517095Y-144359380D02*
X72517095Y-145168904D01*
X72564714Y-145264142D01*
X72612333Y-145311761D01*
X72707571Y-145359380D01*
X72898047Y-145359380D01*
X72993285Y-145311761D01*
X73040904Y-145264142D01*
X73088523Y-145168904D01*
X73088523Y-144359380D01*
X74088523Y-145359380D02*
X73517095Y-145359380D01*
X73802809Y-145359380D02*
X73802809Y-144359380D01*
X73707571Y-144502238D01*
X73612333Y-144597476D01*
X73517095Y-144645095D01*
%TO.C,C1*%
X59015333Y-153519142D02*
X58967714Y-153566761D01*
X58824857Y-153614380D01*
X58729619Y-153614380D01*
X58586761Y-153566761D01*
X58491523Y-153471523D01*
X58443904Y-153376285D01*
X58396285Y-153185809D01*
X58396285Y-153042952D01*
X58443904Y-152852476D01*
X58491523Y-152757238D01*
X58586761Y-152662000D01*
X58729619Y-152614380D01*
X58824857Y-152614380D01*
X58967714Y-152662000D01*
X59015333Y-152709619D01*
X59967714Y-153614380D02*
X59396285Y-153614380D01*
X59682000Y-153614380D02*
X59682000Y-152614380D01*
X59586761Y-152757238D01*
X59491523Y-152852476D01*
X59396285Y-152900095D01*
%TO.C,C2*%
X64095333Y-151868142D02*
X64047714Y-151915761D01*
X63904857Y-151963380D01*
X63809619Y-151963380D01*
X63666761Y-151915761D01*
X63571523Y-151820523D01*
X63523904Y-151725285D01*
X63476285Y-151534809D01*
X63476285Y-151391952D01*
X63523904Y-151201476D01*
X63571523Y-151106238D01*
X63666761Y-151011000D01*
X63809619Y-150963380D01*
X63904857Y-150963380D01*
X64047714Y-151011000D01*
X64095333Y-151058619D01*
X64476285Y-151058619D02*
X64523904Y-151011000D01*
X64619142Y-150963380D01*
X64857238Y-150963380D01*
X64952476Y-151011000D01*
X65000095Y-151058619D01*
X65047714Y-151153857D01*
X65047714Y-151249095D01*
X65000095Y-151391952D01*
X64428666Y-151963380D01*
X65047714Y-151963380D01*
%TO.C,C3*%
X64095333Y-146788142D02*
X64047714Y-146835761D01*
X63904857Y-146883380D01*
X63809619Y-146883380D01*
X63666761Y-146835761D01*
X63571523Y-146740523D01*
X63523904Y-146645285D01*
X63476285Y-146454809D01*
X63476285Y-146311952D01*
X63523904Y-146121476D01*
X63571523Y-146026238D01*
X63666761Y-145931000D01*
X63809619Y-145883380D01*
X63904857Y-145883380D01*
X64047714Y-145931000D01*
X64095333Y-145978619D01*
X64428666Y-145883380D02*
X65047714Y-145883380D01*
X64714380Y-146264333D01*
X64857238Y-146264333D01*
X64952476Y-146311952D01*
X65000095Y-146359571D01*
X65047714Y-146454809D01*
X65047714Y-146692904D01*
X65000095Y-146788142D01*
X64952476Y-146835761D01*
X64857238Y-146883380D01*
X64571523Y-146883380D01*
X64476285Y-146835761D01*
X64428666Y-146788142D01*
%TO.C,C4*%
X64095333Y-149328142D02*
X64047714Y-149375761D01*
X63904857Y-149423380D01*
X63809619Y-149423380D01*
X63666761Y-149375761D01*
X63571523Y-149280523D01*
X63523904Y-149185285D01*
X63476285Y-148994809D01*
X63476285Y-148851952D01*
X63523904Y-148661476D01*
X63571523Y-148566238D01*
X63666761Y-148471000D01*
X63809619Y-148423380D01*
X63904857Y-148423380D01*
X64047714Y-148471000D01*
X64095333Y-148518619D01*
X64952476Y-148756714D02*
X64952476Y-149423380D01*
X64714380Y-148375761D02*
X64476285Y-149090047D01*
X65095333Y-149090047D01*
%TO.C,D1*%
X61539380Y-166092095D02*
X60539380Y-166092095D01*
X60539380Y-165854000D01*
X60587000Y-165711142D01*
X60682238Y-165615904D01*
X60777476Y-165568285D01*
X60967952Y-165520666D01*
X61110809Y-165520666D01*
X61301285Y-165568285D01*
X61396523Y-165615904D01*
X61491761Y-165711142D01*
X61539380Y-165854000D01*
X61539380Y-166092095D01*
X61539380Y-164568285D02*
X61539380Y-165139714D01*
X61539380Y-164854000D02*
X60539380Y-164854000D01*
X60682238Y-164949238D01*
X60777476Y-165044476D01*
X60825095Y-165139714D01*
%TO.C,D2*%
X64079380Y-166092095D02*
X63079380Y-166092095D01*
X63079380Y-165854000D01*
X63127000Y-165711142D01*
X63222238Y-165615904D01*
X63317476Y-165568285D01*
X63507952Y-165520666D01*
X63650809Y-165520666D01*
X63841285Y-165568285D01*
X63936523Y-165615904D01*
X64031761Y-165711142D01*
X64079380Y-165854000D01*
X64079380Y-166092095D01*
X63174619Y-165139714D02*
X63127000Y-165092095D01*
X63079380Y-164996857D01*
X63079380Y-164758761D01*
X63127000Y-164663523D01*
X63174619Y-164615904D01*
X63269857Y-164568285D01*
X63365095Y-164568285D01*
X63507952Y-164615904D01*
X64079380Y-165187333D01*
X64079380Y-164568285D01*
%TO.C,+12V*%
X54427428Y-154161904D02*
X54427428Y-153400000D01*
X54808380Y-153780952D02*
X54046476Y-153780952D01*
X54808380Y-152400000D02*
X54808380Y-152971428D01*
X54808380Y-152685714D02*
X53808380Y-152685714D01*
X53951238Y-152780952D01*
X54046476Y-152876190D01*
X54094095Y-152971428D01*
X53903619Y-152019047D02*
X53856000Y-151971428D01*
X53808380Y-151876190D01*
X53808380Y-151638095D01*
X53856000Y-151542857D01*
X53903619Y-151495238D01*
X53998857Y-151447619D01*
X54094095Y-151447619D01*
X54236952Y-151495238D01*
X54808380Y-152066666D01*
X54808380Y-151447619D01*
X53808380Y-151161904D02*
X54808380Y-150828571D01*
X53808380Y-150495238D01*
%TO.C,GND*%
X53856000Y-146811904D02*
X53808380Y-146907142D01*
X53808380Y-147050000D01*
X53856000Y-147192857D01*
X53951238Y-147288095D01*
X54046476Y-147335714D01*
X54236952Y-147383333D01*
X54379809Y-147383333D01*
X54570285Y-147335714D01*
X54665523Y-147288095D01*
X54760761Y-147192857D01*
X54808380Y-147050000D01*
X54808380Y-146954761D01*
X54760761Y-146811904D01*
X54713142Y-146764285D01*
X54379809Y-146764285D01*
X54379809Y-146954761D01*
X54808380Y-146335714D02*
X53808380Y-146335714D01*
X54808380Y-145764285D01*
X53808380Y-145764285D01*
X54808380Y-145288095D02*
X53808380Y-145288095D01*
X53808380Y-145050000D01*
X53856000Y-144907142D01*
X53951238Y-144811904D01*
X54046476Y-144764285D01*
X54236952Y-144716666D01*
X54379809Y-144716666D01*
X54570285Y-144764285D01*
X54665523Y-144811904D01*
X54760761Y-144907142D01*
X54808380Y-145050000D01*
X54808380Y-145288095D01*
%TO.C,LED+*%
X54808380Y-160011904D02*
X54808380Y-160488095D01*
X53808380Y-160488095D01*
X54284571Y-159678571D02*
X54284571Y-159345238D01*
X54808380Y-159202380D02*
X54808380Y-159678571D01*
X53808380Y-159678571D01*
X53808380Y-159202380D01*
X54808380Y-158773809D02*
X53808380Y-158773809D01*
X53808380Y-158535714D01*
X53856000Y-158392857D01*
X53951238Y-158297619D01*
X54046476Y-158250000D01*
X54236952Y-158202380D01*
X54379809Y-158202380D01*
X54570285Y-158250000D01*
X54665523Y-158297619D01*
X54760761Y-158392857D01*
X54808380Y-158535714D01*
X54808380Y-158773809D01*
X54427428Y-157773809D02*
X54427428Y-157011904D01*
X54808380Y-157392857D02*
X54046476Y-157392857D01*
%TO.C,LED-*%
X54808380Y-166361904D02*
X54808380Y-166838095D01*
X53808380Y-166838095D01*
X54284571Y-166028571D02*
X54284571Y-165695238D01*
X54808380Y-165552380D02*
X54808380Y-166028571D01*
X53808380Y-166028571D01*
X53808380Y-165552380D01*
X54808380Y-165123809D02*
X53808380Y-165123809D01*
X53808380Y-164885714D01*
X53856000Y-164742857D01*
X53951238Y-164647619D01*
X54046476Y-164600000D01*
X54236952Y-164552380D01*
X54379809Y-164552380D01*
X54570285Y-164600000D01*
X54665523Y-164647619D01*
X54760761Y-164742857D01*
X54808380Y-164885714D01*
X54808380Y-165123809D01*
X54427428Y-164123809D02*
X54427428Y-163361904D01*
%TO.C,Q1*%
X83470761Y-155741619D02*
X83375523Y-155694000D01*
X83280285Y-155598761D01*
X83137428Y-155455904D01*
X83042190Y-155408285D01*
X82946952Y-155408285D01*
X82994571Y-155646380D02*
X82899333Y-155598761D01*
X82804095Y-155503523D01*
X82756476Y-155313047D01*
X82756476Y-154979714D01*
X82804095Y-154789238D01*
X82899333Y-154694000D01*
X82994571Y-154646380D01*
X83185047Y-154646380D01*
X83280285Y-154694000D01*
X83375523Y-154789238D01*
X83423142Y-154979714D01*
X83423142Y-155313047D01*
X83375523Y-155503523D01*
X83280285Y-155598761D01*
X83185047Y-155646380D01*
X82994571Y-155646380D01*
X84375523Y-155646380D02*
X83804095Y-155646380D01*
X84089809Y-155646380D02*
X84089809Y-154646380D01*
X83994571Y-154789238D01*
X83899333Y-154884476D01*
X83804095Y-154932095D01*
%TO.C,R1*%
X77541380Y-157138666D02*
X77065190Y-157472000D01*
X77541380Y-157710095D02*
X76541380Y-157710095D01*
X76541380Y-157329142D01*
X76589000Y-157233904D01*
X76636619Y-157186285D01*
X76731857Y-157138666D01*
X76874714Y-157138666D01*
X76969952Y-157186285D01*
X77017571Y-157233904D01*
X77065190Y-157329142D01*
X77065190Y-157710095D01*
X77541380Y-156186285D02*
X77541380Y-156757714D01*
X77541380Y-156472000D02*
X76541380Y-156472000D01*
X76684238Y-156567238D01*
X76779476Y-156662476D01*
X76827095Y-156757714D01*
%TO.C,R2*%
X64206380Y-154090666D02*
X63730190Y-154424000D01*
X64206380Y-154662095D02*
X63206380Y-154662095D01*
X63206380Y-154281142D01*
X63254000Y-154185904D01*
X63301619Y-154138285D01*
X63396857Y-154090666D01*
X63539714Y-154090666D01*
X63634952Y-154138285D01*
X63682571Y-154185904D01*
X63730190Y-154281142D01*
X63730190Y-154662095D01*
X63301619Y-153709714D02*
X63254000Y-153662095D01*
X63206380Y-153566857D01*
X63206380Y-153328761D01*
X63254000Y-153233523D01*
X63301619Y-153185904D01*
X63396857Y-153138285D01*
X63492095Y-153138285D01*
X63634952Y-153185904D01*
X64206380Y-153757333D01*
X64206380Y-153138285D01*
%TO.C,U2*%
X69048095Y-158456380D02*
X69048095Y-159265904D01*
X69095714Y-159361142D01*
X69143333Y-159408761D01*
X69238571Y-159456380D01*
X69429047Y-159456380D01*
X69524285Y-159408761D01*
X69571904Y-159361142D01*
X69619523Y-159265904D01*
X69619523Y-158456380D01*
X70048095Y-158551619D02*
X70095714Y-158504000D01*
X70190952Y-158456380D01*
X70429047Y-158456380D01*
X70524285Y-158504000D01*
X70571904Y-158551619D01*
X70619523Y-158646857D01*
X70619523Y-158742095D01*
X70571904Y-158884952D01*
X70000476Y-159456380D01*
X70619523Y-159456380D01*
%TD*%
M02*
